<?xml version="1.0" encoding="UTF-8" standalone="no"?>
<!-- Created with Inkscape (http://www.inkscape.org/) -->

<svg
   xmlns:dc="http://purl.org/dc/elements/1.1/"
   xmlns:cc="http://creativecommons.org/ns#"
   xmlns:rdf="http://www.w3.org/1999/02/22-rdf-syntax-ns#"
   xmlns:svg="http://www.w3.org/2000/svg"
   xmlns="http://www.w3.org/2000/svg"
   xmlns:sodipodi="http://sodipodi.sourceforge.net/DTD/sodipodi-0.dtd"
   xmlns:inkscape="http://www.inkscape.org/namespaces/inkscape"
   width="74.122948mm"
   height="59.562084mm"
   viewBox="0 0 74.122948 59.562084"
   version="1.1"
   id="svg8"
   sodipodi:docname="baniadointermitente.svg"
   inkscape:version="0.92.3 (2405546, 2018-03-11)">
  <defs
     id="defs2" />
  <sodipodi:namedview
     id="base"
     pagecolor="#ffffff"
     bordercolor="#666666"
     borderopacity="1.0"
     inkscape:pageopacity="0.0"
     inkscape:pageshadow="2"
     inkscape:zoom="3.959798"
     inkscape:cx="174.00439"
     inkscape:cy="139.11874"
     inkscape:document-units="mm"
     inkscape:current-layer="layer1"
     showgrid="false"
     inkscape:window-width="1920"
     inkscape:window-height="914"
     inkscape:window-x="0"
     inkscape:window-y="0"
     inkscape:window-maximized="1"
     showguides="false" />
  <metadata
     id="metadata5">
    <rdf:RDF>
      <cc:Work
         rdf:about="">
        <dc:format>image/svg+xml</dc:format>
        <dc:type
           rdf:resource="http://purl.org/dc/dcmitype/StillImage" />
      </cc:Work>
    </rdf:RDF>
  </metadata>
  <g
     inkscape:label="Layer 1"
     inkscape:groupmode="layer"
     id="layer1"
     transform="translate(-59.511453,-20.301632)">
    <g
       id="g1795">
      <g
         id="g1066"
         style="fill:none">
        <path
           style="fill:none;stroke:none;stroke-width:0.26458332px;stroke-linecap:butt;stroke-linejoin:miter;stroke-opacity:1"
           d="m 86.745534,28.258928 c -0.647171,0.197419 -0.584153,-0.575558 -0.944941,-0.755951 -0.05634,-0.02817 -0.132641,0.02817 -0.188987,0 -0.07968,-0.03984 -0.109304,-0.149148 -0.188989,-0.188989 -0.05635,-0.02817 -0.132641,0.02817 -0.188986,0 -0.07968,-0.03984 -0.109305,-0.149146 -0.18899,-0.18899 -0.05634,-0.02817 -0.132643,0.02817 -0.188986,0 -0.07968,-0.03984 -0.109305,-0.149145 -0.188989,-0.188986 -0.04969,-0.02485 -0.657127,0 -0.755952,0 -0.09883,0 -0.70626,-0.02485 -0.755954,0 -0.07968,0.03984 -0.109302,0.149145 -0.188987,0.188986 -0.05635,0.02817 -0.132643,-0.02817 -0.188989,0 -0.07969,0.03984 -0.109302,0.149149 -0.188987,0.18899 -0.05634,0.02817 -0.125992,0 -0.188989,0 -0.125992,0 -0.255746,-0.03056 -0.377976,0 -0.273314,0.06833 -0.488682,0.288885 -0.755951,0.377975 -0.05976,0.01992 -0.132644,-0.02817 -0.18899,0 -0.07968,0.03984 -0.109302,0.149146 -0.188986,0.18899 -0.05635,0.02817 -0.129225,-0.01992 -0.188989,0 -0.133636,0.04454 -0.24434,0.144441 -0.377976,0.188986 -0.129993,0.04333 -0.455459,-0.05575 -0.566965,0 -0.159369,0.07968 -0.218607,0.298291 -0.377976,0.377976 -0.112691,0.05635 -0.265284,-0.05634 -0.377976,0 -0.786524,0.393263 0.202036,-0.01304 -0.188989,0.377978 -0.04454,0.04454 -0.132641,-0.02817 -0.188987,0 -0.07968,0.03984 -0.109304,0.149146 -0.188989,0.188987 -0.05635,0.02817 -0.132643,-0.02817 -0.188986,0 -0.15937,0.07968 -0.21861,0.298291 -0.377979,0.377976 -0.05634,0.02817 -0.144441,-0.04454 -0.188986,0 -0.04455,0.04455 0.02817,0.132643 0,0.188989 -0.168212,0.336423 -0.209765,0.04155 -0.377976,0.377976 -0.02817,0.05635 0.02817,0.132643 0,0.188989 -0.393264,0.786522 0.01304,-0.202036 -0.377976,0.188987 -0.03864,0.03864 0.03746,0.492032 0,0.566965 -0.03984,0.07968 -0.149148,0.109302 -0.188989,0.188986 -0.02817,0.05635 0.02817,0.132644 0,0.18899 -0.03984,0.07968 -0.149146,0.109304 -0.18899,0.188989 -0.05126,0.102523 0.05171,0.704239 0,0.755951 -0.04454,0.04455 -0.144441,-0.04454 -0.188986,0 -0.126212,0.126212 0.126211,0.251765 0,0.377976 -0.04454,0.04454 -0.144444,-0.04454 -0.188989,0 -0.09449,0.09449 0.0945,0.472469 0,0.566965 -0.04455,0.04454 -0.144442,-0.04454 -0.188987,0 -0.04454,0.04454 0,0.125992 0,0.188987 0,0.063 0,0.125992 0,0.188989 0,0.692957 0,1.385911 0,2.078868 0,1.007936 0,2.015874 0,3.023809 0,0.314982 0,0.62996 0,0.944941 0,0.063 0,0.125992 0,0.188989 0,0.063 0.02817,0.132641 0,0.188987 -0.03984,0.07969 -0.149146,0.109305 -0.188989,0.188989 -0.05635,0.112692 0.05635,0.265285 0,0.377976 -0.03984,0.07968 -0.149146,0.109305 -0.188987,0.188989 -0.100846,0.201687 0.100844,0.176287 0,0.377976 -0.03984,0.07969 -0.149148,0.109302 -0.188989,0.188987 -0.02817,0.05635 0.02817,0.132643 0,0.188989 -0.07968,0.159369 -0.298291,0.218607 -0.377976,0.377976 -0.03747,0.07493 0.03863,0.528328 0,0.566965 -0.04454,0.04454 -0.144444,-0.04455 -0.188989,0 -0.04454,0.04454 0.01992,0.129225 0,0.188986 -0.456306,1.36892 0.05449,-0.29796 -0.377976,0.566965 -0.02817,0.05635 0.04454,0.144444 0,0.18899 -0.04454,0.04454 -0.132643,-0.02817 -0.188986,0 -0.34793,0.173963 -0.03005,0.392998 -0.377979,0.566962 -0.05634,0.02817 -0.132641,-0.02817 -0.188986,0 -0.05018,0.02508 -0.541875,0.516787 -0.566965,0.566965 -0.02817,0.05635 0.04454,0.144444 0,0.188989 -0.04455,0.04454 -0.132644,-0.02817 -0.188987,0 -0.03618,0.0181 -0.737865,0.719775 -0.755954,0.755952 -0.02817,0.05635 0.04454,0.144444 0,0.188986 -0.04455,0.04455 -0.132641,-0.02817 -0.188987,0 -0.03618,0.0181 -0.737865,0.719778 -0.755954,0.755955 -0.02817,0.05635 0.04454,0.144441 0,0.188986 -0.08909,0.08909 -0.265285,-0.05635 -0.377976,0 -0.159369,0.07968 -0.218607,0.298292 -0.377976,0.377976 -0.05635,0.02817 -0.144444,-0.04454 -0.188986,0 -0.04455,0.04454 0.02817,0.132644 0,0.188989 -0.02508,0.05018 -0.516787,0.541875 -0.566965,0.566965 -0.05635,0.02817 -0.132644,-0.02817 -0.18899,0 -0.07968,0.03984 -0.109302,0.149146 -0.188986,0.188987 -0.112691,0.05635 -0.288888,-0.08909 -0.377976,0 -0.04454,0.04454 0.04454,0.144444 0,0.188989 -0.04454,0.04454 -0.132644,-0.02817 -0.188989,0 -0.07969,0.03984 -0.109305,0.149146 -0.188989,0.188987 -0.05634,0.02817 -0.144442,-0.04454 -0.188987,0 -0.04454,0.04454 0.04454,0.144444 0,0.188989 -0.391022,0.391022 0.01529,-0.597535 -0.377976,0.188989 -0.02817,0.05634 0.04454,0.144442 0,0.188987 -0.04454,0.04454 -0.132643,-0.02817 -0.188989,0 -0.07969,0.03984 -0.125992,0.125992 -0.188987,0.188989 -0.063,0.063 -0.149148,0.109302 -0.188989,0.188987 -0.02817,0.05635 0.04454,0.144444 0,0.188989 -0.391022,0.391022 0.01529,-0.597535 -0.377976,0.188986 -0.02817,0.05635 0.04455,0.144444 0,0.18899 -0.04454,0.04454 -0.132643,-0.02817 -0.188989,0 -0.07968,0.03984 -0.109302,0.149145 -0.188986,0.188989 -0.05635,0.02817 -0.144444,-0.04454 -0.18899,0 -0.04454,0.04454 0.02817,0.132641 0,0.188986 -0.03984,0.07969 -0.13957,0.114861 -0.188986,0.18899 -0.07814,0.117205 -0.110853,0.26077 -0.188989,0.377975 -0.04942,0.07413 -0.149146,0.109302 -0.18899,0.188987 -0.02817,0.05635 0.02817,0.132644 0,0.188989 -0.0181,0.03618 -0.719775,0.737865 -0.755951,0.755952 -0.05635,0.02817 -0.144444,-0.04454 -0.188987,0 0,0.27808 0.04454,0.144444 -0.188989,0.377976 -0.0995,0.0995 -0.466029,0.516498 -0.566965,0.566965 -0.05635,0.02817 -0.144442,-0.04455 -0.188987,0 -0.04454,0.04454 0.02817,0.132643 0,0.188989 -0.0181,0.03618 -0.719778,0.737865 -0.755954,0.755952 -0.05634,0.02817 -0.144441,-0.04455 -0.188987,0 -0.04454,0.04454 0.02817,0.132643 0,0.188989 -0.03984,0.07968 -0.125992,0.125992 -0.188989,0.188986 -0.06299,0.063 -0.125992,0.125992 -0.188986,0.18899 -0.063,0.06299 -0.125992,0.125992 -0.18899,0.188986 -0.06299,0.063 -0.109302,0.149146 -0.188986,0.188989 -0.05635,0.02817 -0.144444,-0.04454 -0.188989,0 -0.04455,0.04455 0.02817,0.132644 0,0.188987 -0.09299,0.18597 -0.662967,0.569984 -0.755952,0.755954 -0.02817,0.05635 0.02817,0.132641 0,0.188987 -0.173966,0.34793 -0.392999,0.03005 -0.566965,0.377976 -0.05635,0.112691 0.08909,0.288888 0,0.377978 -0.04454,0.04454 -0.144444,-0.04454 -0.188989,0 -0.04454,0.04454 0.02817,0.132641 0,0.188987 -0.03984,0.07968 -0.149146,0.109304 -0.188987,0.188989 -0.05635,0.112689 0.05635,0.265284 0,0.377976 -0.07968,0.159369 -0.298291,0.218606 -0.377976,0.377976 -0.02817,0.05635 0.04455,0.144443 0,0.188989 -0.04454,0.04454 -0.144444,-0.04455 -0.188989,0 -0.03863,0.03863 0.03747,0.492029 0,0.566962 -0.03984,0.07968 -0.149146,0.109305 -0.188987,0.188989 -0.02817,0.05635 0.02817,0.132644 0,0.188987 -0.03984,0.07968 -0.149148,0.109305 -0.188989,0.188989 -0.03417,0.06835 0,0.813491 0,0.944941 0,0.755952 0,1.511903 0,2.267857 0,0.063 0,0.125992 0,0.188987 0,0.063 -0.04454,0.144444 0,0.188989 0.04454,0.04455 0.144444,-0.04454 0.188989,0 0.03863,0.03863 -0.03747,0.492033 0,0.566965 0.03984,0.07968 0.149146,0.109302 0.188987,0.188987 0.02817,0.05635 -0.04454,0.144444 0,0.188989 0.04454,0.04454 0.132644,-0.02817 0.188989,0 0.417862,0.208931 0.05865,0.117293 0.188987,0.377976 0.335314,0.670626 0.04266,-0.29265 0.377976,0.377976 0.02817,0.05634 -0.04454,0.144444 0,0.188989 0.04454,0.04454 0.132643,-0.02817 0.188989,0 0.07968,0.03984 0.125992,0.125992 0.188989,0.188987 0.063,0.063 0.125992,0.125991 0.188987,0.188989 0.063,0.06299 0.125992,0.125992 0.188989,0.188986 0.063,0.063 0.149146,0.109305 0.188987,0.18899 0.02817,0.05634 -0.04455,0.144444 0,0.188986 0.391025,0.391025 -0.01529,-0.597535 0.377975,0.188989 0.02817,0.05635 -0.04454,0.144444 0,0.18899 0.04455,0.04454 0.132644,-0.02817 0.18899,0 0.07968,0.03984 0.125991,0.125992 0.188989,0.188986 0.06299,0.063 0.149145,0.109305 0.188986,0.188989 0.02817,0.05635 -0.04454,0.144442 0,0.188987 0.08909,0.08909 0.265287,-0.05635 0.377976,0 0.07968,0.03984 0.109305,0.149146 0.188989,0.188989 0.05635,0.02817 0.132644,-0.02817 0.188987,0 0.07968,0.03984 0.109305,0.149146 0.188989,0.188987 0.112692,0.05634 0.265285,-0.05634 0.377976,0 0.07968,0.03984 0.109305,0.149148 0.188989,0.188989 0.112692,0.05635 0.288886,-0.08909 0.377976,0 0.04454,0.04454 -0.04454,0.144444 0,0.188989 0.08909,0.08909 0.288885,-0.08909 0.377976,0 0.04454,0.04454 -0.04454,0.144442 0,0.188987 0.0061,0.0061 0.521128,0 0.566965,0 1.385911,0 2.771825,0 4.157736,0 0.692957,0 1.385914,0 2.078871,0 0.063,0 0.125992,0 0.188987,0 0.063,0 0.144444,0.04454 0.188989,0 0.04454,-0.04454 -0.04454,-0.144444 0,-0.188987 0.04454,-0.04454 0.125992,0 0.188987,0 0.063,0 0.125992,0 0.188989,0 0.692957,0 1.385911,0 2.078868,0 0.566965,0 1.13393,0 1.700893,0 0.199009,0 0.788328,-0.03916 0.944941,0 0.379515,-0.04337 0.615825,0.295696 0.94494,0.377976 0.183346,0.04584 0.387676,-0.05976 0.566965,0 0.133633,0.04454 0.251984,0.125992 0.377976,0.188987 0.125992,0.063 0.260771,0.110852 0.377976,0.188989 0.432461,0.288308 -0.118173,0.149598 0.566965,0.377976 0.05976,0.01992 0.125992,0 0.188987,0 0.063,0.063 0.109304,0.149145 0.188989,0.188989 0.112691,0.05634 0.288885,-0.08909 0.377976,0 0.04454,0.04454 -0.04455,0.144441 0,0.188987 0.04454,0.04454 0.132643,-0.02817 0.188989,0 0.07968,0.03984 0.109302,0.149145 0.188986,0.188989 0.07493,0.03746 0.528328,-0.03864 0.566965,0 0.04455,0.04454 -0.04454,0.144441 0,0.188986 0.04455,0.04455 0.132644,-0.02817 0.188987,0 0.07968,0.03984 0.109305,0.149146 0.188989,0.18899 0.05635,0.02817 0.132644,-0.02817 0.18899,0 0.07968,0.03984 0.109302,0.149145 0.188986,0.188986 0.151191,0.0756 0.415774,-0.07559 0.566965,0 0.159369,0.07968 0.218607,0.298294 0.377976,0.377979 0.112691,0.05634 0.265284,-0.05635 0.377976,0 0.07968,0.03984 0.109304,0.149145 0.188989,0.188986 0.05635,0.02817 0.144441,-0.04454 0.188987,0 0.04454,0.04454 -0.04455,0.144444 0,0.188989 0.04454,0.04455 0.132643,-0.02817 0.188989,0 0.07968,0.03984 0.109304,0.149146 0.188986,0.188987 0.05635,0.02817 0.132644,-0.02817 0.18899,0 0.07968,0.03984 0.109304,0.149146 0.188989,0.188989 0.05634,0.02817 0.144441,-0.04454 0.188986,0 0.04455,0.04455 -0.04454,0.144444 0,0.188987 0.126368,0.12637 0.251609,-0.126368 0.377976,0 0.946264,0.946266 -0.985499,-0.288917 0.755954,0.755954 0.358908,0.215344 0.785858,0.334915 1.133928,0.566962 0.86578,0.577189 -0.803309,-0.30716 0.566965,0.377979 0.125992,0.063 0.24434,0.144441 0.377976,0.188986 0.05976,0.01992 0.144444,-0.04454 0.188986,0 0.04455,0.04455 -0.04454,0.144444 0,0.18899 0.04455,0.04454 0.132644,-0.02817 0.18899,0 0.07968,0.03984 0.109304,0.149145 0.188989,0.188986 0.112688,0.05635 0.265284,-0.05634 0.377976,0 0.226785,0.113393 0.340177,0.453573 0.566962,0.566965 0.112691,0.05635 0.288888,-0.08909 0.377978,0 0.04454,0.04455 -0.04454,0.144444 0,0.18899 0.503968,0 -0.063,-0.063 0.188987,0.188986 0.08909,0.08909 0.265287,-0.05635 0.377976,0 0.226787,0.113393 0.34018,0.453573 0.566965,0.566965 0.05635,0.02817 0.132643,-0.02817 0.188989,0 0.159367,0.07969 0.218607,0.298291 0.377976,0.377976 0.112691,0.05635 0.32163,-0.112691 0.377976,0 0.05634,0.112691 0,0.251984 0,0.377976 0,0.063 -0.04455,0.144444 0,0.188989 0.08909,0.08909 0.288885,-0.08909 0.377976,0 0.04454,0.04454 -0.02817,0.132641 0,0.188987 0.03984,0.07968 0.125991,0.125992 0.188989,0.188989 0.06299,0.06299 0.109302,0.149145 0.188986,0.188986 0.05635,0.02817 0.144444,-0.04454 0.18899,0 0.04454,0.04455 -0.04455,0.144444 0,0.18899 0.04454,0.04454 0.13264,-0.02817 0.188986,0 0.159369,0.07968 0.218609,0.298291 0.377976,0.377975 0.05635,0.02817 0.132643,-0.02817 0.188989,0 0.786524,0.393261 -0.202036,-0.01304 0.188989,0.377976 0.08909,0.08909 0.288886,-0.08909 0.377976,0 0.04454,0.04454 -0.04454,0.144444 0,0.188989 0.04454,0.04455 0.144442,-0.04454 0.188987,0 0.04454,0.04455 -0.04454,0.144444 0,0.188987 0.08909,0.08909 0.265287,-0.05634 0.377976,0 0.07968,0.03984 0.109304,0.149148 0.188989,0.188989 0.05634,0.02817 0.144444,-0.04454 0.188989,0 0.391022,0.391023 -0.597535,-0.01529 0.188987,0.377976 0.05634,0.02817 0.132643,-0.02817 0.188989,0 0.159369,0.07968 0.218607,0.298291 0.377976,0.377976 0.05634,0.02817 0.144444,-0.04454 0.188986,0 0.04454,0.04454 -0.02817,0.132643 0,0.188989 0.03984,0.07969 0.125995,0.125992 0.188989,0.188987 0.063,0.063 0.109305,0.149148 0.18899,0.188989 0.112688,0.05635 0.288885,-0.08909 0.377975,0 0.04455,0.04454 -0.05635,0.160816 0,0.188989 0.112692,0.05634 0.255747,-0.03056 0.377976,0 0.136658,0.03416 0.241319,0.154824 0.377976,0.188987 0.0063,0.0016 0.56596,-0.0011 0.566965,0 0.04454,0.04454 -0.04454,0.144444 0,0.188989 0.05852,0.05852 0.88642,-0.05852 0.944941,0 0.04454,0.04454 -0.04454,0.144441 0,0.188987 0.03863,0.03864 0.49203,-0.03747 0.566962,0 0.07968,0.03984 0.10931,0.149145 0.18899,0.188989 0.0497,0.02484 0.65713,0 0.75595,0 0.56697,0 1.13393,0 1.70089,0 0.69296,0 1.38592,0 2.07887,0 0.0988,0 0.70626,0.02484 0.75596,0 0.0797,-0.03984 0.1093,-0.149146 0.18898,-0.188989 0.11269,-0.05635 0.28889,0.08909 0.37798,0 0.0891,-0.08909 -0.0891,-0.288886 0,-0.377976 0.0445,-0.04455 0.14444,0.04454 0.18899,0 0.0445,-0.04455 -0.0446,-0.144444 0,-0.188987 0.0445,-0.04454 0.14444,0.04454 0.18899,0 0.39102,-0.391025 -0.59754,0.01529 0.18898,-0.377978 0.0563,-0.02817 0.14445,0.04454 0.18899,0 0.0445,-0.04454 -0.0282,-0.132641 0,-0.188987 0.0797,-0.159369 0.29829,-0.218607 0.37798,-0.377976 0.0282,-0.05635 -0.0282,-0.132643 0,-0.188989 0.0398,-0.07968 0.14914,-0.109305 0.18899,-0.188987 0.0282,-0.05634 -0.0282,-0.132643 0,-0.188989 0.39326,-0.786524 -0.0131,0.202036 0.37797,-0.188989 0.0446,-0.04454 -0.0282,-0.132641 0,-0.188987 0.0398,-0.07968 0.126,-0.125991 0.18899,-0.188989 0.063,-0.06299 0.1093,-0.149145 0.18899,-0.188986 0.0563,-0.02817 0.14444,0.04454 0.18899,0 0.0891,-0.08909 -0.0891,-0.288888 0,-0.377976 0.0445,-0.04454 0.14444,0.04454 0.18899,0 0.0445,-0.04454 -0.0282,-0.132644 0,-0.188989 0.0398,-0.07968 0.14914,-0.109305 0.18898,-0.18899 0.0282,-0.05634 -0.0282,-0.132641 0,-0.188986 0.0399,-0.07968 0.14915,-0.109305 0.18899,-0.188989 0.0282,-0.05635 -0.0445,-0.144442 0,-0.188987 0.39102,-0.391025 -0.0153,0.597535 0.37798,-0.188989 0.0563,-0.112692 -0.0891,-0.288886 0,-0.377976 0.39102,-0.391022 -0.0153,0.597535 0.37797,-0.188989 0.10085,-0.201687 -0.10084,-0.176287 0,-0.377976 0.0399,-0.07968 0.14915,-0.109302 0.18899,-0.188987 0.0282,-0.05635 -0.0445,-0.144444 0,-0.188989 0.39102,-0.391022 -0.0153,0.597535 0.37798,-0.188986 0.0282,-0.05635 -0.0282,-0.132644 0,-0.18899 0.62679,-0.626795 -0.0891,0.178179 0.18899,-0.377976 0.0398,-0.07968 0.14914,-0.109304 0.18898,-0.188989 0.0563,-0.112688 -0.0891,-0.288885 0,-0.377976 0.0446,-0.04454 0.13265,0.02817 0.18899,0 0.78653,-0.39326 -0.20203,0.01304 0.18899,-0.377975 0.0445,-0.04455 0.14444,0.04454 0.18899,0 0.0945,-0.09449 -0.0945,-0.472469 0,-0.566965 0.0445,-0.04455 0.13264,0.02817 0.18899,0 0.41786,-0.208931 0.0586,-0.117293 0.18898,-0.377976 0.0399,-0.07968 0.126,-0.125992 0.18899,-0.188987 0.1485,-0.148502 0.88475,-0.82456 0.94494,-0.944941 0.0282,-0.05635 -0.0282,-0.132643 0,-0.188989 0.0797,-0.159369 0.2983,-0.218607 0.37798,-0.377976 0.0282,-0.05634 -0.0445,-0.144444 0,-0.188989 0.0446,-0.04454 0.14444,0.04454 0.18899,0 0.0445,-0.04454 -0.0282,-0.132641 0,-0.188986 0.0398,-0.07968 0.14914,-0.109305 0.18899,-0.18899 0.0282,-0.05634 -0.0446,-0.144441 0,-0.188986 0.0445,-0.04455 0.12599,0 0.18898,0 0.25199,0 0.50397,0 0.75596,0 0.063,0 0.14444,0.04454 0.18898,0 0.0446,-0.04455 -0.0445,-0.144444 0,-0.188989 0.0446,-0.04455 0.13265,0.02817 0.18899,0 0.0797,-0.03984 0.10931,-0.149146 0.18899,-0.188987 0.11269,-0.05635 0.26529,0.05634 0.37798,0 0.22678,-0.113395 0.34018,-0.453573 0.56696,-0.566965 0.11269,-0.05635 0.26529,0.05635 0.37798,0 0.15937,-0.07968 0.21861,-0.298291 0.37797,-0.377976 0.0564,-0.02817 0.13265,0.02817 0.18899,0 0.6268,-0.626795 -0.17818,0.08909 0.37798,-0.188989 0.15937,-0.07968 0.21861,-0.298291 0.37797,-0.377976 0.11269,-0.05635 0.26529,0.05635 0.37798,0 0.78652,-0.393261 -0.20203,0.01304 0.18899,-0.377976 0.0891,-0.08909 0.26528,0.05635 0.37797,0 0.15937,-0.07968 0.21861,-0.298291 0.37798,-0.377976 0.12077,-0.06039 0.60384,0.0507 0.75595,0 0.13364,-0.04454 0.23985,-0.161364 0.37798,-0.188989 0.24709,-0.04942 0.50397,0 0.75595,0 0.50397,0 1.00794,0 1.51191,0 0.86032,0 0.0108,0.08909 0.56696,-0.188986 0.11269,-0.05635 0.26529,0.05634 0.37798,0 0.0797,-0.03984 0.1093,-0.149149 0.18898,-0.18899 0.11923,-0.05961 0.82572,0.05961 0.94495,0 0.0797,-0.03984 0.1093,-0.149145 0.18898,-0.188989 0.0564,-0.02817 0.13265,0.02817 0.18899,0 0.0797,-0.03984 0.10931,-0.149145 0.18899,-0.188986 0.11269,-0.05635 0.25845,0.03984 0.37798,0 0.13363,-0.04455 0.24434,-0.144444 0.37797,-0.18899 0.0598,-0.01992 0.12599,0 0.18899,0 0.16038,0 1.02974,0.03473 1.13393,0 0.0845,-0.02817 0.1093,-0.149145 0.18899,-0.188986 0.11269,-0.05635 0.28888,0.08909 0.37797,0 0.0446,-0.04454 -0.0445,-0.144444 0,-0.188989 0.0891,-0.08909 0.26529,0.05634 0.37798,0 0.0797,-0.03984 0.1093,-0.149146 0.18899,-0.188987 0.11878,-0.05939 0.63717,0.05939 0.75595,0 0.78652,-0.393263 -0.20204,0.01304 0.18899,-0.377978 0.0891,-0.08909 0.28888,0.08909 0.37797,0 0.0445,-0.04454 -0.0445,-0.144442 0,-0.188987 0.0445,-0.04454 0.13265,0.02817 0.18899,0 0.0362,-0.0181 0.73787,-0.719778 0.75595,-0.755952 0.0282,-0.05635 -0.0282,-0.132643 0,-0.188989 0.0399,-0.07968 0.14915,-0.109305 0.18899,-0.188989 0.0282,-0.05634 -0.0445,-0.144441 0,-0.188987 0.39102,-0.391022 -0.0153,0.597535 0.37798,-0.188989 0.0282,-0.05635 -0.0282,-0.132641 0,-0.188987 0.0797,-0.159369 0.29829,-0.218609 0.37797,-0.377975 0.0282,-0.05635 -0.0445,-0.144444 0,-0.18899 0.0445,-0.04454 0.13265,0.02817 0.18899,0 0.0362,-0.0181 0.73787,-0.719775 0.75595,-0.755951 0.0282,-0.05635 -0.0445,-0.144444 0,-0.188989 0.0445,-0.04455 0.13265,0.02817 0.18899,0 0.0797,-0.03984 0.126,-0.125992 0.18899,-0.188987 0.063,-0.063 0.14915,-0.109305 0.18899,-0.188989 0.0564,-0.112692 -0.0564,-0.265285 0,-0.377976 0.39326,-0.786524 -0.013,0.202036 0.37798,-0.188989 0.0891,-0.08909 -0.0564,-0.265285 0,-0.377976 0.0398,-0.07968 0.14914,-0.109305 0.18898,-0.188987 0.0282,-0.05635 -0.0282,-0.132643 0,-0.188989 0.0399,-0.07968 0.14915,-0.109305 0.18899,-0.188989 0.0282,-0.05634 0,-0.125992 0,-0.188987 0,-0.063 0.0446,-0.144444 0,-0.188989 -0.0445,-0.04454 -0.14444,0.04454 -0.18899,0 -0.0445,-0.04454 0.0282,-0.132641 0,-0.188986 -0.0398,-0.07968 -0.12599,-0.125992 -0.18898,-0.18899 -0.6268,-0.626795 0.0891,0.178181 -0.18899,-0.377975 -0.0398,-0.07968 -0.14915,-0.109305 -0.18899,-0.18899 -0.0564,-0.112688 0.0891,-0.288885 0,-0.377976 -0.0446,-0.04454 -0.14444,0.04455 -0.18899,0 -0.0445,-0.04454 0.0282,-0.13264 0,-0.188986 -0.0398,-0.07968 -0.14914,-0.109305 -0.18899,-0.188989 -0.0563,-0.112692 0.0564,-0.265285 0,-0.377976 -0.20893,-0.417865 -0.11729,-0.05865 -0.37797,-0.188989 -0.41787,-0.208931 -0.0587,-0.117293 -0.18899,-0.377976 -0.39326,-0.786522 0.013,0.202036 -0.37798,-0.188987 -0.0891,-0.08909 0.0891,-0.288888 0,-0.377976 -0.39102,-0.391025 0.0153,0.597535 -0.37797,-0.188989 -0.0282,-0.05635 0.0282,-0.132643 0,-0.188989 -0.0399,-0.07968 -0.14915,-0.109302 -0.18899,-0.188987 -0.0282,-0.05635 0.0445,-0.144444 0,-0.188989 -0.0445,-0.04454 -0.14445,0.04454 -0.18899,0 -0.0445,-0.04454 0.0445,-0.144441 0,-0.188986 -0.0445,-0.04455 -0.14444,0.04454 -0.18899,0 -0.0445,-0.04455 0.0446,-0.144444 0,-0.18899 -0.0445,-0.04454 -0.14444,0.04455 -0.18899,0 -0.0445,-0.04454 0.0445,-0.144444 0,-0.188986 -0.39102,-0.391025 0.0153,0.597535 -0.37797,-0.188989 -0.0564,-0.112692 0.0891,-0.288886 0,-0.377976 -0.0445,-0.04455 -0.14445,0.04454 -0.18899,0 -0.0445,-0.04455 0.0445,-0.144444 0,-0.188989 -0.0445,-0.04455 -0.14444,0.04454 -0.18899,0 -0.0891,-0.08909 0.0891,-0.288886 0,-0.377976 -0.0445,-0.04455 -0.14444,0.04454 -0.18899,0 -0.39102,-0.391023 0.59754,0.01529 -0.18898,-0.377976 -0.0564,-0.02817 -0.14445,0.04454 -0.18899,0 -0.12621,-0.126212 0.12621,-0.251764 0,-0.377976 -0.0891,-0.08909 -0.28889,0.08909 -0.37798,0 -0.0445,-0.04454 0.0446,-0.144444 0,-0.188989 -0.0445,-0.04454 -0.13264,0.02817 -0.18899,0 -0.15936,-0.07968 -0.21861,-0.298291 -0.37797,-0.377976 -0.11269,-0.05635 -0.26529,0.05635 -0.37798,0 -0.15937,-0.07968 -0.21861,-0.298291 -0.37798,-0.377976 -0.0563,-0.02817 -0.13264,0.02817 -0.18898,0 -0.0797,-0.03984 -0.12599,-0.125992 -0.18899,-0.188989 -0.063,-0.063 -0.14915,-0.109302 -0.18899,-0.188987 -0.0282,-0.05635 0.0445,-0.144444 0,-0.188989 -0.39102,-0.391022 0.0153,0.597535 -0.37798,-0.188986 -0.0282,-0.05635 0.0446,-0.144444 0,-0.18899 -0.0891,-0.08909 -0.26528,0.05635 -0.37797,0 -0.15937,-0.07968 -0.21861,-0.298291 -0.37798,-0.377975 -0.0563,-0.02817 -0.12599,0 -0.18899,0 -0.063,-0.063 -0.1093,-0.149146 -0.18898,-0.18899 -0.1127,-0.05634 -0.28889,0.08909 -0.37798,0 -0.39102,-0.391022 0.59754,0.01529 -0.18899,-0.377975 -0.11269,-0.05635 -0.26528,0.05635 -0.37797,0 -0.15937,-0.07969 -0.21861,-0.298292 -0.37798,-0.377976 -0.0564,-0.02817 -0.13264,0.02817 -0.18899,0 -0.0797,-0.03984 -0.1093,-0.149146 -0.18899,-0.188987 -0.0563,-0.02817 -0.12599,0 -0.18899,0 -0.063,0 -0.12599,0 -0.18898,0 -0.31498,0 -0.62996,0 -0.94494,0 -0.37798,0 -0.75596,0 -1.13393,0 -0.063,0 -0.126,0 -0.18899,0 -0.063,0 -0.13264,-0.02817 -0.18899,0 -0.0797,0.03984 -0.1093,0.149146 -0.18899,0.188987 -0.11269,0.05635 -0.28888,-0.08909 -0.37797,0 -0.0446,0.04454 0.0445,0.144444 0,0.188989 -0.0517,0.05171 -0.65343,-0.05126 -0.75596,0 -0.0797,0.03984 -0.1093,0.149146 -0.18898,0.188987 -0.15119,0.0756 -0.41578,-0.07559 -0.56697,0 -0.0797,0.03984 -0.1093,0.149145 -0.18899,0.188989 -0.0683,0.03417 -0.81349,0 -0.94494,0 -0.31498,0 -0.62996,0 -0.94494,0 -0.063,0 -0.14444,0.04454 -0.18898,0 -0.0446,-0.04454 0.0445,-0.144444 0,-0.188989 -0.0891,-0.08909 -0.26529,0.05635 -0.37798,0 -0.0797,-0.03984 -0.10931,-0.149146 -0.18899,-0.188987 -0.0563,-0.02817 -0.13264,0.02817 -0.18899,0 -0.78652,-0.393263 0.20204,0.01304 -0.18899,-0.377976 -0.12636,-0.12637 -0.2516,0.126368 -0.37797,0 -0.0891,-0.08909 0.0891,-0.288888 0,-0.377978 -0.0446,-0.04454 -0.14445,0.04454 -0.18899,0 -0.0445,-0.04454 0.0445,-0.144442 0,-0.188987 -0.0445,-0.04454 -0.14444,0.04454 -0.18899,0 -0.0445,-0.04454 0.0282,-0.132643 0,-0.188989 -0.62679,-0.626793 0.0891,0.178181 -0.18899,-0.377976 -0.62679,-0.626795 0.0891,0.178181 -0.18898,-0.377976 -0.0399,-0.07968 -0.14915,-0.109304 -0.18899,-0.188989 -0.0342,-0.06834 0,-0.81349 0,-0.944938 0,-0.063 0.0445,-0.144444 0,-0.188989 -0.0446,-0.04455 -0.14445,0.04454 -0.18899,0 -0.0613,-0.06127 0.06,-0.82499 0,-0.944941 -0.0398,-0.07968 -0.14914,-0.109305 -0.18899,-0.188987 -0.0248,-0.04969 0,-0.657127 0,-0.755954 0,-0.44097 0,-0.881944 0,-1.322917 0,-0.08511 -0.0288,-0.509447 0,-0.566962 0.0399,-0.07968 0.14915,-0.109305 0.18899,-0.188989 0.0594,-0.118782 -0.0594,-0.63717 0,-0.755952 0.0398,-0.07968 0.14915,-0.109305 0.18899,-0.188989 0.0282,-0.05635 -0.0446,-0.144444 0,-0.188987 0.0445,-0.04454 0.14444,0.04454 0.18899,0 0.0559,-0.05592 -0.0585,-0.638892 0,-0.755954 0.0797,-0.159369 0.29829,-0.218607 0.37797,-0.377976 0.0563,-0.112691 -0.0891,-0.288885 0,-0.377976 0.0445,-0.04454 0.14445,0.04455 0.18899,0 0.0445,-0.04454 0,-0.125992 0,-0.188989 0,-0.206356 -0.0407,-0.822719 0,-0.944938 0.0445,-0.133636 0.15483,-0.241319 0.18899,-0.377978 0.0611,-0.24446 -0.0414,-0.507397 0,-0.755952 0.0427,-0.256204 0.1603,-0.4978 0.18899,-0.755952 0.0626,-0.563496 -0.0703,-1.138306 0,-1.700892 0.0322,-0.257733 0.15225,-0.498824 0.18898,-0.755954 0.0267,-0.187087 -0.0371,-0.381646 0,-0.566963 0.0276,-0.138128 0.16137,-0.23985 0.18899,-0.377976 0.0371,-0.185319 0,-0.377978 0,-0.566965 0,-0.188989 0,-0.377975 0,-0.566965 0,-0.06299 -0.0199,-0.129225 0,-0.188986 0.0446,-0.133636 0.15483,-0.241319 0.18899,-0.377979 0.023,-0.09207 -0.05,-0.656018 0,-0.755951 0.0398,-0.07968 0.14915,-0.109305 0.18899,-0.188987 0.0288,-0.05752 0,-0.481854 0,-0.566965 0,-0.314981 0,-0.62996 0,-0.944941 0,-0.125992 0.0247,-0.254431 0,-0.377976 -0.0391,-0.195341 -0.15624,-0.370464 -0.18899,-0.566965 -0.0311,-0.186417 0.0371,-0.381645 0,-0.566965 -0.0276,-0.138125 -0.15482,-0.241318 -0.18899,-0.377975 -0.0306,-0.12223 0,-0.251984 0,-0.377976 -0.063,-0.125992 -0.14444,-0.244341 -0.18899,-0.377976 -0.0199,-0.05976 0.0153,-0.127873 0,-0.188988 -0.0483,-0.193263 -0.15623,-0.370464 -0.18898,-0.566965 -0.0311,-0.186416 0.0371,-0.381646 0,-0.566964 -0.0276,-0.138128 -0.13668,-0.247188 -0.18899,-0.377976 -0.074,-0.184963 -0.12599,-0.377976 -0.18899,-0.566964 -0.12599,-0.377976 -0.28135,-0.747403 -0.37798,-1.133929 -0.0153,-0.06112 0.0199,-0.129225 0,-0.188988 -0.4563,-1.368919 0.0545,0.29796 -0.37797,-0.566964 -0.0282,-0.05635 0.0445,-0.144443 0,-0.188988 -0.0446,-0.04455 -0.14445,0.04454 -0.18899,0 -0.0891,-0.08909 0.0891,-0.288887 0,-0.377976 -0.0891,-0.08909 -0.26529,0.05635 -0.37798,0 -0.34793,-0.173966 -0.03,-0.393 -0.37797,-0.566965 -0.0749,-0.03747 -0.52833,0.03864 -0.56697,0 -0.0445,-0.04455 0.0446,-0.144443 0,-0.188988 -0.0445,-0.04454 -0.12599,0 -0.18898,0 -0.063,0 -0.126,0 -0.18899,0 -0.0458,0 -0.56089,0.0061 -0.56697,0 -0.0445,-0.04454 0.0446,-0.144443 0,-0.188988 -0.0445,-0.04454 -0.12599,0 -0.18899,0 -0.063,0 -0.12599,0 -0.18898,0 -0.37798,0 -0.75596,0 -1.13393,0 -0.0851,0 -0.50945,-0.02876 -0.56697,0 -0.0797,0.03984 -0.1093,0.149146 -0.18898,0.188988 -0.11923,0.05961 -0.82572,-0.05961 -0.94494,0 -0.0797,0.03984 -0.10931,0.149146 -0.18899,0.188988 -0.0564,0.02817 -0.13264,-0.02817 -0.18899,0 -0.0797,0.03984 -0.10931,0.149146 -0.18899,0.188988 -0.0563,0.02817 -0.13264,-0.02817 -0.18899,0 -0.0797,0.03984 -0.1093,0.149146 -0.18899,0.188988 -0.0749,0.03747 -0.52832,-0.03864 -0.56696,0 -0.0445,0.04454 0.0445,0.144444 0,0.188989 -0.0445,0.04454 -0.13264,-0.02817 -0.18899,0 -0.0797,0.03984 -0.1093,0.149145 -0.18899,0.188988 -0.0749,0.03747 -0.52832,-0.03864 -0.56696,0 -0.0445,0.04454 0.0445,0.144443 0,0.188988 -0.0445,0.04454 -0.13264,-0.02817 -0.18899,0 -0.15937,0.07968 -0.2186,0.298291 -0.37797,0.377976 -0.1127,0.05634 -0.26529,-0.05635 -0.37798,0 -0.0797,0.03984 -0.1093,0.149146 -0.18899,0.188988 -0.0563,0.02817 -0.14444,-0.04454 -0.18899,0 -0.0445,0.04454 0.0446,0.144443 0,0.188988 -0.0945,0.09449 -0.47247,-0.09449 -0.56696,0 -0.0446,0.04455 0.0282,0.132643 0,0.188988 -0.39326,0.786523 0.013,-0.202035 -0.37798,0.188988 -0.0445,0.04455 0.0446,0.144443 0,0.188988 -0.0945,0.09449 -0.47247,-0.09449 -0.56696,0 -0.0446,0.04454 0.0445,0.144443 0,0.188988 -0.0446,0.04454 -0.13264,-0.02817 -0.18899,0 -0.0797,0.03984 -0.1093,0.149146 -0.18899,0.188989 -0.11269,0.05635 -0.26528,-0.05635 -0.37797,0 -0.15937,0.07968 -0.21861,0.298291 -0.37798,0.377976 -0.0563,0.02817 -0.14444,-0.04454 -0.18899,0 -0.0445,0.04455 0.0446,0.144443 0,0.188988 -0.0945,0.09449 -0.47247,-0.09449 -0.56696,0 -0.0446,0.04454 0.0445,0.144443 0,0.188988 -0.0446,0.04454 -0.14444,-0.04454 -0.18899,0 -0.0445,0.04454 0.0446,0.144443 0,0.188988 -0.0891,0.08909 -0.26529,-0.05635 -0.37798,0 -0.30253,0.151265 -0.0754,0.226711 -0.37797,0.377976 -0.0564,0.02817 -0.13264,-0.02817 -0.18899,0 -0.0797,0.03984 -0.10931,0.149146 -0.18899,0.188988 -0.112688,0.05635 -0.288885,-0.08909 -0.377975,0 -0.04455,0.04454 0.04454,0.144443 0,0.188988 -0.04455,0.04454 -0.132644,-0.02817 -0.188987,0 -0.07968,0.03984 -0.109305,0.149146 -0.188989,0.188988 -0.112692,0.05635 -0.265285,-0.05635 -0.377976,0 -0.159369,0.07969 -0.218607,0.298292 -0.377976,0.377977 -0.112691,0.05635 -0.265287,-0.05635 -0.377976,0 -0.07968,0.03984 -0.109304,0.149145 -0.188989,0.188988 -0.05635,0.02817 -0.144444,-0.04454 -0.188989,0 -0.04454,0.04454 0.04454,0.144443 0,0.188988 -0.08909,0.08909 -0.265285,-0.05635 -0.377976,0 -0.07968,0.03984 -0.109302,0.149146 -0.188987,0.188988 -0.15119,0.07559 -0.415774,-0.07559 -0.566965,0 -0.07968,0.03984 -0.109304,0.149146 -0.188989,0.188988 -0.112688,0.05635 -0.265284,-0.05634 -0.377976,0 -0.07968,0.03984 -0.109302,0.149145 -0.188986,0.188989 -0.151191,0.07559 -0.415774,-0.0756 -0.566965,0 -0.07968,0.03984 -0.109305,0.149146 -0.188989,0.188987 -0.05634,0.02817 -0.132641,-0.02817 -0.188987,0 -0.07968,0.03984 -0.109305,0.149145 -0.188989,0.188989 -0.05635,0.02817 -0.132641,-0.02817 -0.188987,0 -0.07968,0.03984 -0.109304,0.149145 -0.188989,0.188986 -0.151191,0.0756 -0.415774,-0.07559 -0.566965,0 -0.159367,0.07968 -0.218607,0.298294 -0.377976,0.377979 -0.07493,0.03746 -0.528328,-0.03864 -0.566962,0 -0.04455,0.04454 0.04454,0.144441 0,0.188986 -0.04455,0.04455 -0.132644,-0.02817 -0.188989,0 -0.07969,0.03984 -0.109305,0.149146 -0.18899,0.18899 -0.112688,0.05634 -0.288885,-0.08909 -0.377976,0 -0.04454,0.04454 0.04455,0.144441 0,0.188986 -0.09449,0.0945 -0.472469,-0.09449 -0.566962,0 -0.04454,0.04454 0.04454,0.144444 0,0.188989 -0.12637,0.126368 -0.251608,-0.126367 -0.377978,0 -0.04454,0.04455 0.04454,0.144444 0,0.188987 -0.0061,0.0061 -0.521129,0 -0.566963,0 -0.692957,0 -1.385914,0 -2.078871,0 -0.232971,0 -0.742873,0.04042 -0.944938,0 -0.254696,-0.05094 -0.50397,-0.125992 -0.755954,-0.188987 z"
           id="path12"
           inkscape:connector-curvature="0" />
      </g>
      <path
         inkscape:connector-curvature="0"
         id="path22"
         d="m 100.09666,79.569203 c -0.0321,-0.05197 -0.153691,-0.09449 -0.270158,-0.09449 -0.116467,0 -0.252156,-0.0384 -0.301527,-0.08533 -0.04937,-0.04693 -0.28112,-0.107968 -0.514993,-0.135638 -0.661382,-0.07824 -1.065705,-0.160941 -1.322917,-0.270582 -0.498684,-0.212569 -0.620098,-0.255584 -0.802481,-0.284308 -0.103547,-0.0163 -0.244065,-0.146066 -0.312261,-0.288353 -0.0682,-0.142285 -0.176006,-0.258702 -0.239578,-0.258702 -0.06357,0 -0.187417,-0.07441 -0.275209,-0.165364 -0.368459,-0.381707 -0.609748,-0.568807 -0.921811,-0.714785 -0.181901,-0.08509 -0.472823,-0.281679 -0.646493,-0.436862 -0.173673,-0.155181 -0.407543,-0.31078 -0.519719,-0.345771 -0.112172,-0.03499 -0.310258,-0.169187 -0.440187,-0.298209 -0.129929,-0.129024 -0.332674,-0.271349 -0.45054,-0.31628 -0.11787,-0.04493 -0.255014,-0.188759 -0.304769,-0.319622 -0.04975,-0.13086 -0.152471,-0.237929 -0.228264,-0.237929 -0.08009,0 -0.150325,-0.108837 -0.167703,-0.259858 -0.02246,-0.195115 -0.08876,-0.267983 -0.266134,-0.292468 -0.129929,-0.01794 -0.312306,-0.113609 -0.405281,-0.212611 -0.09297,-0.099 -0.230192,-0.180004 -0.304927,-0.180004 -0.07474,0 -0.204448,-0.104645 -0.288255,-0.23255 -0.0838,-0.127903 -0.240975,-0.260671 -0.349266,-0.295043 -0.108291,-0.03437 -0.282596,-0.142332 -0.387342,-0.239918 -0.104746,-0.09759 -0.279265,-0.177427 -0.387821,-0.177427 -0.108556,0 -0.309314,-0.127569 -0.446127,-0.283483 -0.148537,-0.169278 -0.341456,-0.283482 -0.478867,-0.283482 -0.126563,0 -0.307078,-0.08505 -0.401148,-0.18899 -0.09407,-0.103941 -0.244713,-0.188986 -0.334769,-0.188986 -0.09006,0 -0.370494,-0.141872 -0.623192,-0.315275 -0.252696,-0.173397 -0.7366,-0.447252 -1.075338,-0.608563 -0.340548,-0.162174 -0.709679,-0.42015 -0.82568,-0.577048 -0.115385,-0.156067 -0.485045,-0.415123 -0.821465,-0.575683 -0.336423,-0.16056 -0.635439,-0.330372 -0.66448,-0.377365 -0.07574,-0.12255 -0.617336,-0.380889 -0.798518,-0.380889 -0.08441,0 -0.226287,-0.08505 -0.315285,-0.188986 -0.09171,-0.107106 -0.278752,-0.18899 -0.431708,-0.18899 -0.302103,0 -0.785698,-0.214741 -0.962009,-0.427183 -0.0638,-0.07688 -0.253039,-0.139782 -0.420521,-0.139782 -0.184507,0 -0.371916,-0.07448 -0.475546,-0.188986 -0.09407,-0.103944 -0.268237,-0.188989 -0.387045,-0.188989 -0.118806,0 -0.242293,-0.04252 -0.274413,-0.09449 -0.03212,-0.05197 -0.135729,-0.09449 -0.23024,-0.09449 -0.09452,0 -0.221364,-0.05967 -0.281893,-0.132604 -0.183637,-0.221268 -1.093864,-0.62335 -1.411134,-0.62335 -0.163915,0 -0.456702,-0.08504 -0.650639,-0.188987 -0.329192,-0.176437 -0.533144,-0.188989 -3.070715,-0.188989 -1.74907,0 -2.718101,0.03369 -2.718101,0.09449 0,0.06125 -1.195967,0.0945 -3.398912,0.0945 -3.223757,0 -3.416252,-0.0097 -3.73539,-0.188989 -0.185063,-0.103944 -0.417719,-0.188987 -0.517014,-0.188987 -0.0993,0 -0.206817,-0.04252 -0.238938,-0.0945 -0.03212,-0.05197 -0.133728,-0.09449 -0.225798,-0.09449 -0.435649,0 -1.442119,-0.713002 -1.700688,-1.204799 -0.06148,-0.116937 -0.160629,-0.212611 -0.220327,-0.212611 -0.145563,0 -1.396714,-1.300318 -1.396714,-1.451599 0,-0.06559 -0.127566,-0.213574 -0.283483,-0.328848 -0.218612,-0.161626 -0.283482,-0.283342 -0.283482,-0.531911 0,-0.177278 -0.04252,-0.348601 -0.09449,-0.380722 -0.05714,-0.03532 -0.09449,-0.708731 -0.09449,-1.703596 0,-1.470041 0.02011,-1.681017 0.188987,-1.981674 0.103944,-0.185063 0.188989,-0.394107 0.188989,-0.464542 0,-0.173252 0.205385,-0.557541 0.404286,-0.756441 0.08947,-0.08947 0.162679,-0.259358 0.162679,-0.377518 0,-0.118163 0.08505,-0.291804 0.188987,-0.385874 0.103944,-0.09407 0.188989,-0.266136 0.188989,-0.382376 0,-0.145087 0.07209,-0.229441 0.229936,-0.269057 0.126466,-0.03174 0.260204,-0.153286 0.297196,-0.270103 0.03699,-0.116816 1.081622,-1.227362 2.321401,-2.467879 1.239779,-1.240521 2.256967,-2.303579 2.260418,-2.362351 0.01,-0.170151 0.604766,-0.947931 0.804349,-1.051833 0.309382,-0.161062 0.620202,-0.462663 0.70849,-0.687474 0.04645,-0.118269 0.159502,-0.243028 0.251233,-0.277241 0.09173,-0.03422 0.319225,-0.205328 0.505544,-0.380254 0.18632,-0.174924 0.62746,-0.463296 0.980313,-0.640824 0.392822,-0.197641 0.811107,-0.507217 1.0789,-0.798502 0.279635,-0.304167 0.515003,-0.475721 0.652677,-0.475721 0.119999,0 0.24098,-0.07321 0.273275,-0.165364 0.08335,-0.237861 0.612039,-0.779576 0.76082,-0.779576 0.06939,0 0.152249,-0.07441 0.18412,-0.165365 0.08319,-0.237374 0.611908,-0.779576 0.760193,-0.779576 0.06905,0 0.162134,-0.09568 0.206854,-0.212611 0.09971,-0.26071 0.36308,-0.499457 0.646123,-0.585709 0.116814,-0.0356 0.236083,-0.159115 0.265036,-0.274481 0.02896,-0.115369 0.145992,-0.250732 0.26008,-0.300807 0.248962,-0.109279 0.727149,-1.017794 0.727149,-1.381528 0,-0.142605 0.05661,-0.293288 0.125786,-0.334848 0.158551,-0.09525 0.441177,-0.66393 0.441177,-0.887706 0,-0.09289 0.04252,-0.195176 0.0945,-0.227296 0.05197,-0.03212 0.09449,-0.159687 0.09449,-0.28348 0,-0.123796 0.04252,-0.251362 0.09449,-0.283482 0.06012,-0.03715 0.0945,-1.274792 0.0945,-3.401788 0,-2.126993 0.03438,-3.364632 0.09449,-3.401785 0.05197,-0.03212 0.09449,-0.139642 0.09449,-0.238937 0,-0.0993 0.08504,-0.331952 0.188989,-0.517015 0.103941,-0.185062 0.188986,-0.482719 0.188986,-0.661458 0,-0.178739 0.08505,-0.476395 0.18899,-0.661458 0.103944,-0.185063 0.188986,-0.379484 0.188986,-0.432049 0,-0.05257 0.08504,-0.186857 0.188989,-0.298426 0.103945,-0.11157 0.18899,-0.254159 0.18899,-0.316865 0,-0.190431 0.779856,-0.938324 1.163256,-1.115581 0.198033,-0.09156 0.383302,-0.227037 0.41171,-0.301067 0.02841,-0.07403 0.132562,-0.134599 0.231455,-0.134599 0.09889,0 0.252619,-0.08504 0.34162,-0.188989 0.089,-0.103942 0.277931,-0.188987 0.419851,-0.188987 0.14192,0 0.376973,-0.0485 0.52234,-0.107772 0.145368,-0.05928 0.413134,-0.167897 0.595035,-0.24138 0.181901,-0.07348 0.443595,-0.195072 0.581544,-0.270203 0.137948,-0.07513 0.381158,-0.136596 0.540467,-0.136596 0.159308,0 0.441065,-0.08504 0.626128,-0.18899 0.244446,-0.137294 0.511633,-0.188989 0.976855,-0.188989 0.539142,0 0.74059,0.05042 1.274257,0.318924 0.40105,0.201782 0.712767,0.43606 0.848657,0.637833 0.282646,0.41969 0.560411,0.468056 3.009339,0.524029 1.831189,0.04185 1.976318,0.03254 2.356477,-0.15113 0.222808,-0.107649 0.456586,-0.195726 0.519504,-0.195726 0.06292,0 0.356904,-0.127566 0.653304,-0.283482 0.296399,-0.155916 0.620051,-0.283483 0.719224,-0.283483 0.09918,0 0.253138,-0.08504 0.342136,-0.188986 0.089,-0.103944 0.275616,-0.18899 0.414702,-0.18899 0.139087,0 0.495396,-0.127566 0.791795,-0.283482 0.2964,-0.155914 0.659649,-0.283483 0.807217,-0.283483 0.147572,0 0.29459,-0.04252 0.326711,-0.09449 0.03212,-0.05197 0.159689,-0.09449 0.283482,-0.09449 0.123796,0 0.251362,-0.04252 0.283483,-0.0945 0.03212,-0.05197 0.20221,-0.09449 0.377975,-0.09449 0.175768,0 0.345856,-0.04252 0.377976,-0.09449 0.03212,-0.05197 0.155607,-0.09449 0.274415,-0.09449 0.118806,0 0.292976,-0.08504 0.387043,-0.188988 0.09407,-0.103944 0.271167,-0.188988 0.39355,-0.188988 0.12238,0 0.29533,-0.08505 0.384328,-0.188988 0.089,-0.103944 0.225288,-0.188988 0.302861,-0.188988 0.209042,0 1.706831,-0.750246 1.706831,-0.854956 0,-0.04949 0.0997,-0.08998 0.22159,-0.08998 0.12188,0 0.29856,-0.08504 0.39263,-0.188988 0.0941,-0.103943 0.26366,-0.188988 0.37687,-0.188988 0.11321,0 0.32986,-0.126386 0.48144,-0.280857 0.15159,-0.154472 0.34873,-0.282039 0.4381,-0.283482 0.0894,-0.0015 0.30198,-0.08096 0.47247,-0.176694 0.17049,-0.09574 0.4626,-0.202687 0.64914,-0.237665 0.22459,-0.04211 0.38159,-0.142907 0.46481,-0.298401 0.0747,-0.139642 0.209,-0.234806 0.33128,-0.234806 0.1131,0 0.28259,-0.08504 0.37666,-0.188988 0.0941,-0.103943 0.26771,-0.188988 0.38587,-0.188988 0.11816,0 0.28805,-0.07321 0.37752,-0.162679 0.1989,-0.1989 0.58319,-0.404285 0.75644,-0.404285 0.0704,0 0.27948,-0.08504 0.46455,-0.188988 0.18506,-0.103944 0.39464,-0.188988 0.46574,-0.188988 0.0711,0 0.37178,-0.127567 0.66818,-0.283483 0.38342,-0.20169 0.67085,-0.283482 0.99621,-0.283482 0.25151,0 0.48358,-0.04252 0.5157,-0.09449 0.0767,-0.124165 2.00213,-0.124165 2.07887,0 0.0321,0.05197 0.24724,0.09449 0.47804,0.09449 0.23081,0 0.41965,0.04252 0.41965,0.09449 0,0.05197 0.1382,0.09476 0.30711,0.09509 0.24192,4.76e-4 0.34127,0.06064 0.46807,0.283482 0.0885,0.155587 0.22673,0.282885 0.30711,0.282885 0.0804,0 0.14613,0.05431 0.14613,0.120682 0,0.06638 0.12757,0.26035 0.28348,0.431055 0.15592,0.170705 0.28349,0.366805 0.28349,0.435779 0,0.06897 0.17009,0.618682 0.37797,1.221577 0.20789,0.602895 0.37798,1.179598 0.37798,1.281563 0,0.101965 0.0679,0.431969 0.15087,0.733342 0.4144,1.505103 0.51867,2.100561 0.57409,3.278198 0.0294,0.624416 0.01,1.107665 -0.0498,1.22842 -0.0982,0.198808 -0.13391,0.435116 -0.2947,1.947212 -0.047,0.441759 -0.13582,1.100854 -0.19744,1.464657 -0.0616,0.363802 -0.12245,1.091895 -0.13519,1.617985 -0.0127,0.526089 -0.0758,1.175988 -0.14015,1.444217 -0.0644,0.26823 -0.0934,0.577819 -0.0646,0.687975 0.0288,0.110154 -0.009,0.319223 -0.0843,0.464593 -0.0752,0.145372 -0.13668,0.476525 -0.13668,0.735899 0,0.259371 -0.0425,0.497866 -0.0945,0.529986 -0.052,0.03212 -0.0945,0.155605 -0.0945,0.274413 0,0.118809 -0.085,0.292976 -0.18899,0.387046 -0.10395,0.09407 -0.18899,0.290713 -0.18899,0.436993 0,0.146281 -0.0878,0.422233 -0.19505,0.613233 -0.11609,0.206687 -0.18407,0.474747 -0.16792,0.662165 0.0149,0.173191 -0.0249,0.366895 -0.0884,0.430453 -0.15963,0.159634 -0.16227,2.828079 -0.003,2.987395 0.0644,0.06444 0.10208,0.310935 0.088,0.57627 -0.0135,0.255016 0.0209,0.491752 0.0764,0.526082 0.0555,0.03433 0.10099,0.268986 0.10099,0.521459 0,0.344466 0.0841,0.617524 0.33682,1.093949 0.18525,0.349197 0.39787,0.695944 0.47247,0.770551 0.0746,0.0746 0.13565,0.190609 0.13565,0.257787 0,0.175672 0.99776,0.809302 1.27439,0.809302 0.0787,0 0.14302,0.04252 0.14302,0.09449 0,0.05772 0.43911,0.09449 1.12835,0.09449 0.65031,0 1.1531,-0.04003 1.18676,-0.09449 0.0321,-0.05197 0.20221,-0.09449 0.37797,-0.09449 0.17577,0 0.34586,-0.04252 0.37798,-0.09449 0.0321,-0.05197 0.22468,-0.09449 0.42792,-0.09449 0.20324,0 0.52094,-0.08505 0.70601,-0.188987 0.29133,-0.163634 0.51163,-0.188989 1.642,-0.188989 1.33158,0 1.71033,0.08099 1.99764,0.427185 0.0638,0.07688 0.19435,0.13978 0.2901,0.13978 0.0958,0 0.21961,0.08505 0.27524,0.188986 0.0556,0.103945 0.17816,0.18899 0.27229,0.18899 0.21741,0 0.71176,0.244625 0.86327,0.427183 0.0638,0.07688 0.15232,0.139782 0.1967,0.139782 0.0444,0 0.30361,0.212611 0.57606,0.472469 0.27244,0.259858 0.54325,0.472471 0.60179,0.472471 0.0585,0 0.1834,0.08504 0.27747,0.188987 0.0941,0.103944 0.26011,0.189185 0.36899,0.189426 0.10888,2.64e-4 0.33386,0.127807 0.49995,0.283482 0.16609,0.155673 0.34681,0.283044 0.4016,0.283044 0.0548,0 0.0996,0.06229 0.0996,0.138416 0,0.07613 0.0795,0.180967 0.17667,0.232969 0.0972,0.052 0.24799,0.24485 0.33516,0.428548 0.0872,0.183697 0.19572,0.333997 0.24123,0.333997 0.0455,0 0.13234,0.150333 0.19298,0.334076 0.0607,0.183742 0.2234,0.405905 0.36168,0.493696 0.34346,0.218052 0.66225,0.580509 0.80946,0.920367 0.0675,0.155916 0.25185,0.421047 0.40957,0.589179 0.15772,0.168135 0.311,0.368848 0.34062,0.446032 0.0296,0.07718 0.16198,0.167471 0.29413,0.200639 0.13216,0.03317 0.24028,0.124886 0.24028,0.203816 0,0.175382 0.6453,1.515751 0.76549,1.590035 0.0475,0.02934 0.15001,0.176525 0.22786,0.327083 0.13031,0.251976 0.12573,0.302223 -0.0575,0.631844 -0.10949,0.196953 -0.26356,0.430771 -0.34237,0.519591 -0.0788,0.08882 -0.17142,0.301435 -0.20579,0.472472 -0.0385,0.191595 -0.14305,0.346784 -0.27234,0.404254 -0.11541,0.0513 -0.20984,0.125593 -0.20984,0.165092 0,0.130215 -0.68083,0.82831 -0.80782,0.82831 -0.0684,0 -0.14872,0.07667 -0.17846,0.170384 -0.0297,0.09371 -0.20304,0.316952 -0.38511,0.496094 -0.18206,0.179141 -0.40129,0.47454 -0.48716,0.656441 -0.18772,0.39763 -0.68181,0.944939 -0.85306,0.944939 -0.0678,0 -0.12321,0.04252 -0.12321,0.0945 0,0.05197 -0.0836,0.09449 -0.18566,0.09449 -0.10212,0 -0.23118,0.08505 -0.28681,0.188989 -0.0746,0.139465 -0.19785,0.188987 -0.47022,0.188987 -0.20299,0 -0.39535,0.04252 -0.42747,0.09449 -0.0321,0.05197 -0.1622,0.0945 -0.28906,0.0945 -0.12686,0 -0.23066,0.04252 -0.23066,0.09449 0,0.05197 -0.0765,0.09449 -0.17009,0.09449 -0.0935,0 -0.21048,0.03933 -0.25986,0.0874 -0.0494,0.04806 -0.40868,0.10773 -0.79847,0.132593 -0.89707,0.05722 -1.28705,0.141073 -1.67848,0.360926 -0.18573,0.104318 -0.49912,0.175041 -0.77566,0.175041 -0.25522,0 -0.48727,0.03762 -0.51569,0.0836 -0.0869,0.140607 -0.60775,0.21736 -2.03836,0.300373 -2.03939,0.118338 -2.4192,0.173765 -2.60612,0.380312 -0.0899,0.09936 -0.26171,0.180655 -0.38176,0.180655 -0.12155,0 -0.26308,0.08374 -0.31941,0.188989 -0.0556,0.103944 -0.17619,0.188989 -0.26791,0.188989 -0.0917,0 -0.21421,0.04745 -0.2722,0.105437 -0.11382,0.113826 -0.43054,0.305554 -0.73944,0.447625 -0.10608,0.04879 -0.24948,0.156921 -0.31868,0.240292 -0.0692,0.08337 -0.21894,0.151585 -0.33279,0.151585 -0.11384,0 -0.3292,0.127568 -0.47857,0.283482 -0.14938,0.155916 -0.34021,0.283483 -0.42407,0.283483 -0.19714,0 -0.66092,0.215191 -0.66188,0.307107 -2.6e-4,0.03898 -0.25692,0.07087 -0.57004,0.07087 -0.50647,0 -0.57839,0.02389 -0.65162,0.216496 -0.0453,0.119073 -0.15052,0.273108 -0.23389,0.342299 -0.0834,0.06919 -0.15159,0.177792 -0.15159,0.241332 0,0.06354 -0.085,0.192487 -0.18898,0.286557 -0.10395,0.09407 -0.18899,0.218924 -0.18899,0.27746 0,0.05854 -0.25514,0.358902 -0.56697,0.667478 -0.31183,0.308578 -0.56696,0.610574 -0.56696,0.671105 0,0.06053 -0.0851,0.132292 -0.18899,0.159475 -0.12583,0.03291 -0.18899,0.128892 -0.18899,0.287234 0,0.138245 -0.11869,0.356503 -0.28348,0.521296 -0.15591,0.155913 -0.28348,0.349242 -0.28348,0.429617 0,0.191952 -0.36439,0.840682 -0.52384,0.932601 -0.13536,0.07803 -0.4211,0.600672 -0.4211,0.770223 0,0.05747 -0.085,0.157604 -0.18899,0.222517 -0.10394,0.06492 -0.18899,0.19816 -0.18899,0.296103 0,0.09794 -0.0618,0.201777 -0.13724,0.230743 -0.0755,0.02896 -0.2222,0.239173 -0.32605,0.467127 -0.10385,0.227955 -0.2547,0.469146 -0.33523,0.53598 -0.0805,0.06683 -0.14642,0.177692 -0.14642,0.246351 0,0.06866 -0.17284,0.265435 -0.38409,0.437277 -0.21821,0.177504 -0.48398,0.525171 -0.61537,0.805013 -0.13144,0.279948 -0.39394,0.623287 -0.6081,0.795391 -0.20724,0.166549 -0.37681,0.354935 -0.37681,0.418637 0,0.0637 -0.0638,0.14029 -0.14174,0.170206 -0.078,0.02991 -0.14208,0.108879 -0.14248,0.175474 -0.002,0.301657 -0.4822,0.357317 -3.08359,0.357317 -1.61418,0 -2.59594,-0.03524 -2.63257,-0.09449 z"
         style="fill:none;fill-opacity:1;stroke:none;stroke-width:0.2017857;stroke-miterlimit:4;stroke-dasharray:4.84285709, 4.84285709;stroke-dashoffset:21.35433006" />
      <path
         inkscape:connector-curvature="0"
         id="path862"
         d="m 74.650297,42.622022 39.026043,0.472472 z"
         style="fill:none;fill-opacity:0;stroke:#a7e6ff;stroke-width:0.26499999;stroke-linecap:butt;stroke-linejoin:miter;stroke-miterlimit:4;stroke-dasharray:3.17999985, 3.17999985;stroke-dashoffset:0;stroke-opacity:1" />
      <path
         inkscape:connector-curvature="0"
         id="path862-3"
         d="m 71.673256,46.165922 42.145304,0.471726 z"
         style="fill:none;fill-opacity:0;stroke:#a7e6ff;stroke-width:0.27516925;stroke-linecap:butt;stroke-linejoin:miter;stroke-miterlimit:4;stroke-dasharray:3.30203099, 3.30203099;stroke-dashoffset:0;stroke-opacity:1" />
      <path
         inkscape:connector-curvature="0"
         id="path862-3-6"
         d="m 67.939918,48.812365 47.816602,0.470506 z"
         style="fill:none;fill-opacity:0;stroke:#a7e6ff;stroke-width:0.29271987;stroke-linecap:butt;stroke-linejoin:miter;stroke-miterlimit:4;stroke-dasharray:3.51263834, 3.51263834;stroke-dashoffset:0;stroke-opacity:1" />
      <path
         inkscape:connector-curvature="0"
         id="path862-3-7"
         d="M 65.008556,51.884554 128.42172,52.35205 Z"
         style="fill:none;fill-opacity:0;stroke:#a7e6ff;stroke-width:0.33601516;stroke-linecap:butt;stroke-linejoin:miter;stroke-miterlimit:4;stroke-dasharray:4.03218199, 4.03218199;stroke-dashoffset:0;stroke-opacity:1" />
      <path
         inkscape:connector-curvature="0"
         id="path862-3-7-5"
         d="m 62.219904,55.239864 69.461986,0.4667 z"
         style="fill:none;fill-opacity:0;stroke:#a7e6ff;stroke-width:0.35137653;stroke-linecap:butt;stroke-linejoin:miter;stroke-miterlimit:4;stroke-dasharray:4.21651809, 4.21651809;stroke-dashoffset:0;stroke-opacity:1" />
      <path
         inkscape:connector-curvature="0"
         id="path862-3-7-3"
         d="m 59.951717,58.641843 72.297453,0.466314 z"
         style="fill:none;fill-opacity:0;stroke:#a7e6ff;stroke-width:0.35832879;stroke-linecap:butt;stroke-linejoin:miter;stroke-miterlimit:4;stroke-dasharray:4.29994496, 4.29994496;stroke-dashoffset:0;stroke-opacity:1" />
      <path
         inkscape:connector-curvature="0"
         id="path862-3-7-2"
         d="m 59.668448,62.704967 70.596142,0.466554 z"
         style="fill:none;fill-opacity:0;stroke:#a7e6ff;stroke-width:0.35417843;stroke-linecap:butt;stroke-linejoin:miter;stroke-miterlimit:4;stroke-dasharray:4.25014068, 4.25014068;stroke-dashoffset:0;stroke-opacity:1" />
      <path
         inkscape:connector-curvature="0"
         id="path862-3-7-9"
         d="m 62.031931,65.539012 58.971109,0.468106 z"
         style="fill:none;fill-opacity:0;stroke:#a7e6ff;stroke-width:0.32424402;stroke-linecap:butt;stroke-linejoin:miter;stroke-miterlimit:4;stroke-dasharray:3.89092787, 3.89092787;stroke-dashoffset:0;stroke-opacity:1" />
      <path
         inkscape:connector-curvature="0"
         id="path862-1"
         d="M 83.675901,69.976652 112.11576,70.45192 Z"
         style="fill:none;fill-opacity:0;stroke:#a7e6ff;stroke-width:0.22688931;stroke-linecap:butt;stroke-linejoin:miter;stroke-miterlimit:4;stroke-dasharray:2.72267177, 2.72267177;stroke-dashoffset:0;stroke-opacity:1" />
      <path
         inkscape:connector-curvature="0"
         id="path862-2"
         d="m 90.149569,73.802326 19.933751,0.47794 z"
         style="fill:none;fill-opacity:0;stroke:#a7e6ff;stroke-width:0.19048557;stroke-linecap:butt;stroke-linejoin:miter;stroke-miterlimit:4;stroke-dasharray:2.2858268, 2.2858268;stroke-dashoffset:0;stroke-opacity:1" />
      <path
         inkscape:connector-curvature="0"
         id="path862-7"
         d="m 93.69338,76.588873 14.45253,0.479992 z"
         style="fill:none;fill-opacity:0;stroke:#a7e6ff;stroke-width:0.16254336;stroke-linecap:butt;stroke-linejoin:miter;stroke-miterlimit:4;stroke-dasharray:1.95052023, 1.95052023;stroke-dashoffset:0;stroke-opacity:1" />
      <path
         inkscape:connector-curvature="0"
         id="path862-0"
         d="m 76.209448,38.606025 39.026042,0.472472 z"
         style="fill:none;fill-opacity:0;stroke:#a7e6ff;stroke-width:0.26499999;stroke-linecap:butt;stroke-linejoin:miter;stroke-miterlimit:4;stroke-dasharray:3.17999988, 3.17999988;stroke-dashoffset:0;stroke-opacity:1" />
      <path
         inkscape:connector-curvature="0"
         id="path862-9"
         d="m 75.878718,36.479911 39.026042,0.472472 z"
         style="fill:none;fill-opacity:0;stroke:#a7e6ff;stroke-width:0.26499999;stroke-linecap:butt;stroke-linejoin:miter;stroke-miterlimit:4;stroke-dasharray:3.17999988, 3.17999988;stroke-dashoffset:0;stroke-opacity:1" />
      <path
         inkscape:connector-curvature="0"
         id="path862-36"
         d="m 76.303942,32.936383 39.026038,0.472472 z"
         style="fill:none;fill-opacity:0;stroke:#a7e6ff;stroke-width:0.26499999;stroke-linecap:butt;stroke-linejoin:miter;stroke-miterlimit:4;stroke-dasharray:3.17999988, 3.17999988;stroke-dashoffset:0;stroke-opacity:1" />
      <path
         inkscape:connector-curvature="0"
         id="path862-9-0"
         d="M 77.532477,29.723492 115.80235,30.19615 Z"
         style="fill:none;fill-opacity:0;stroke:#a7e6ff;stroke-width:0.26247162;stroke-linecap:butt;stroke-linejoin:miter;stroke-miterlimit:4;stroke-dasharray:3.14965935, 3.14965935;stroke-dashoffset:0;stroke-opacity:1" />
      <path
         inkscape:connector-curvature="0"
         id="path862-9-6"
         d="m 94.070945,27.264278 21.540405,0.477396 z"
         style="fill:none;fill-opacity:0;stroke:#a7e6ff;stroke-width:0.19790058;stroke-linecap:butt;stroke-linejoin:miter;stroke-miterlimit:4;stroke-dasharray:2.37480696, 2.37480696;stroke-dashoffset:0;stroke-opacity:1" />
      <path
         inkscape:connector-curvature="0"
         id="path862-9-2"
         d="m 114.94892,24.892168 -13.88444,-0.54252 z"
         style="fill:none;fill-opacity:0;stroke:#a7e6ff;stroke-width:0.16937664;stroke-linecap:butt;stroke-linejoin:miter;stroke-miterlimit:4;stroke-dasharray:2.03251976, 2.03251976;stroke-dashoffset:0;stroke-opacity:1" />
      <path
         inkscape:connector-curvature="0"
         id="path862-9-0-1"
         d="m 105.22172,21.970092 9.34972,0.482434 z"
         style="fill:none;fill-opacity:0;stroke:#a7e6ff;stroke-width:0.131;stroke-linecap:butt;stroke-linejoin:miter;stroke-miterlimit:4;stroke-dasharray:0.524, 1.048;stroke-dashoffset:0;stroke-opacity:1" />
    </g>
  </g>
</svg>
