<?xml version="1.0" encoding="UTF-8" standalone="no"?>
<!-- Created with Inkscape (http://www.inkscape.org/) -->

<svg
   xmlns:dc="http://purl.org/dc/elements/1.1/"
   xmlns:cc="http://creativecommons.org/ns#"
   xmlns:rdf="http://www.w3.org/1999/02/22-rdf-syntax-ns#"
   xmlns:svg="http://www.w3.org/2000/svg"
   xmlns="http://www.w3.org/2000/svg"
   xmlns:sodipodi="http://sodipodi.sourceforge.net/DTD/sodipodi-0.dtd"
   xmlns:inkscape="http://www.inkscape.org/namespaces/inkscape"
   width="72.321152mm"
   height="56.527912mm"
   viewBox="0 0 72.321152 56.527912"
   version="1.1"
   id="svg8"
   sodipodi:docname="lagunaperenne.svg"
   inkscape:version="0.92.3 (2405546, 2018-03-11)">
  <defs
     id="defs2" />
  <sodipodi:namedview
     id="base"
     pagecolor="#ffffff"
     bordercolor="#666666"
     borderopacity="1.0"
     inkscape:pageopacity="0.0"
     inkscape:pageshadow="2"
     inkscape:zoom="2.8"
     inkscape:cx="112.65193"
     inkscape:cy="97.521582"
     inkscape:document-units="mm"
     inkscape:current-layer="layer1"
     showgrid="false"
     inkscape:window-width="1920"
     inkscape:window-height="914"
     inkscape:window-x="0"
     inkscape:window-y="0"
     inkscape:window-maximized="1"
     showguides="false" />
  <metadata
     id="metadata5">
    <rdf:RDF>
      <cc:Work
         rdf:about="">
        <dc:format>image/svg+xml</dc:format>
        <dc:type
           rdf:resource="http://purl.org/dc/dcmitype/StillImage" />
        <dc:title></dc:title>
      </cc:Work>
    </rdf:RDF>
  </metadata>
  <g
     inkscape:label="Layer 1"
     inkscape:groupmode="layer"
     id="layer1"
     transform="translate(-60.167255,-20.812274)">
    <g
       id="g1066">
      <path
         inkscape:connector-curvature="0"
         id="path12"
         d="m 86.745534,28.258928 c -0.647171,0.197419 -0.584153,-0.575558 -0.944941,-0.755951 -0.05634,-0.02817 -0.132641,0.02817 -0.188987,0 -0.07968,-0.03984 -0.109304,-0.149148 -0.188989,-0.188989 -0.05635,-0.02817 -0.132641,0.02817 -0.188986,0 -0.07968,-0.03984 -0.109305,-0.149146 -0.18899,-0.18899 -0.05634,-0.02817 -0.132643,0.02817 -0.188986,0 -0.07968,-0.03984 -0.109305,-0.149145 -0.188989,-0.188986 -0.04969,-0.02485 -0.657127,0 -0.755952,0 -0.09883,0 -0.70626,-0.02485 -0.755954,0 -0.07968,0.03984 -0.109302,0.149145 -0.188987,0.188986 -0.05635,0.02817 -0.132643,-0.02817 -0.188989,0 -0.07969,0.03984 -0.109302,0.149149 -0.188987,0.18899 -0.05634,0.02817 -0.125992,0 -0.188989,0 -0.125992,0 -0.255746,-0.03056 -0.377976,0 -0.273314,0.06833 -0.488682,0.288885 -0.755951,0.377975 -0.05976,0.01992 -0.132644,-0.02817 -0.18899,0 -0.07968,0.03984 -0.109302,0.149146 -0.188986,0.18899 -0.05635,0.02817 -0.129225,-0.01992 -0.188989,0 -0.133636,0.04454 -0.24434,0.144441 -0.377976,0.188986 -0.129993,0.04333 -0.455459,-0.05575 -0.566965,0 -0.159369,0.07968 -0.218607,0.298291 -0.377976,0.377976 -0.112691,0.05635 -0.265284,-0.05634 -0.377976,0 -0.786524,0.393263 0.202036,-0.01304 -0.188989,0.377978 -0.04454,0.04454 -0.132641,-0.02817 -0.188987,0 -0.07968,0.03984 -0.109304,0.149146 -0.188989,0.188987 -0.05635,0.02817 -0.132643,-0.02817 -0.188986,0 -0.15937,0.07968 -0.21861,0.298291 -0.377979,0.377976 -0.05634,0.02817 -0.144441,-0.04454 -0.188986,0 -0.04455,0.04455 0.02817,0.132643 0,0.188989 -0.168212,0.336423 -0.209765,0.04155 -0.377976,0.377976 -0.02817,0.05635 0.02817,0.132643 0,0.188989 -0.393264,0.786522 0.01304,-0.202036 -0.377976,0.188987 -0.03864,0.03864 0.03746,0.492032 0,0.566965 -0.03984,0.07968 -0.149148,0.109302 -0.188989,0.188986 -0.02817,0.05635 0.02817,0.132644 0,0.18899 -0.03984,0.07968 -0.149146,0.109304 -0.18899,0.188989 -0.05126,0.102523 0.05171,0.704239 0,0.755951 -0.04454,0.04455 -0.144441,-0.04454 -0.188986,0 -0.126212,0.126212 0.126211,0.251765 0,0.377976 -0.04454,0.04454 -0.144444,-0.04454 -0.188989,0 -0.09449,0.09449 0.0945,0.472469 0,0.566965 -0.04455,0.04454 -0.144442,-0.04454 -0.188987,0 -0.04454,0.04454 0,0.125992 0,0.188987 0,0.063 0,0.125992 0,0.188989 0,0.692957 0,1.385911 0,2.078868 0,1.007936 0,2.015874 0,3.023809 0,0.314982 0,0.62996 0,0.944941 0,0.063 0,0.125992 0,0.188989 0,0.063 0.02817,0.132641 0,0.188987 -0.03984,0.07969 -0.149146,0.109305 -0.188989,0.188989 -0.05635,0.112692 0.05635,0.265285 0,0.377976 -0.03984,0.07968 -0.149146,0.109305 -0.188987,0.188989 -0.100846,0.201687 0.100844,0.176287 0,0.377976 -0.03984,0.07969 -0.149148,0.109302 -0.188989,0.188987 -0.02817,0.05635 0.02817,0.132643 0,0.188989 -0.07968,0.159369 -0.298291,0.218607 -0.377976,0.377976 -0.03747,0.07493 0.03863,0.528328 0,0.566965 -0.04454,0.04454 -0.144444,-0.04455 -0.188989,0 -0.04454,0.04454 0.01992,0.129225 0,0.188986 -0.456306,1.36892 0.05449,-0.29796 -0.377976,0.566965 -0.02817,0.05635 0.04454,0.144444 0,0.18899 -0.04454,0.04454 -0.132643,-0.02817 -0.188986,0 -0.34793,0.173963 -0.03005,0.392998 -0.377979,0.566962 -0.05634,0.02817 -0.132641,-0.02817 -0.188986,0 -0.05018,0.02508 -0.541875,0.516787 -0.566965,0.566965 -0.02817,0.05635 0.04454,0.144444 0,0.188989 -0.04455,0.04454 -0.132644,-0.02817 -0.188987,0 -0.03618,0.0181 -0.737865,0.719775 -0.755954,0.755952 -0.02817,0.05635 0.04454,0.144444 0,0.188986 -0.04455,0.04455 -0.132641,-0.02817 -0.188987,0 -0.03618,0.0181 -0.737865,0.719778 -0.755954,0.755955 -0.02817,0.05635 0.04454,0.144441 0,0.188986 -0.08909,0.08909 -0.265285,-0.05635 -0.377976,0 -0.159369,0.07968 -0.218607,0.298292 -0.377976,0.377976 -0.05635,0.02817 -0.144444,-0.04454 -0.188986,0 -0.04455,0.04454 0.02817,0.132644 0,0.188989 -0.02508,0.05018 -0.516787,0.541875 -0.566965,0.566965 -0.05635,0.02817 -0.132644,-0.02817 -0.18899,0 -0.07968,0.03984 -0.109302,0.149146 -0.188986,0.188987 -0.112691,0.05635 -0.288888,-0.08909 -0.377976,0 -0.04454,0.04454 0.04454,0.144444 0,0.188989 -0.04454,0.04454 -0.132644,-0.02817 -0.188989,0 -0.07969,0.03984 -0.109305,0.149146 -0.188989,0.188987 -0.05634,0.02817 -0.144442,-0.04454 -0.188987,0 -0.04454,0.04454 0.04454,0.144444 0,0.188989 -0.391022,0.391022 0.01529,-0.597535 -0.377976,0.188989 -0.02817,0.05634 0.04454,0.144442 0,0.188987 -0.04454,0.04454 -0.132643,-0.02817 -0.188989,0 -0.07969,0.03984 -0.125992,0.125992 -0.188987,0.188989 -0.063,0.063 -0.149148,0.109302 -0.188989,0.188987 -0.02817,0.05635 0.04454,0.144444 0,0.188989 -0.391022,0.391022 0.01529,-0.597535 -0.377976,0.188986 -0.02817,0.05635 0.04455,0.144444 0,0.18899 -0.04454,0.04454 -0.132643,-0.02817 -0.188989,0 -0.07968,0.03984 -0.109302,0.149145 -0.188986,0.188989 -0.05635,0.02817 -0.144444,-0.04454 -0.18899,0 -0.04454,0.04454 0.02817,0.132641 0,0.188986 -0.03984,0.07969 -0.13957,0.114861 -0.188986,0.18899 -0.07814,0.117205 -0.110853,0.26077 -0.188989,0.377975 -0.04942,0.07413 -0.149146,0.109302 -0.18899,0.188987 -0.02817,0.05635 0.02817,0.132644 0,0.188989 -0.0181,0.03618 -0.719775,0.737865 -0.755951,0.755952 -0.05635,0.02817 -0.144444,-0.04454 -0.188987,0 0,0.27808 0.04454,0.144444 -0.188989,0.377976 -0.0995,0.0995 -0.466029,0.516498 -0.566965,0.566965 -0.05635,0.02817 -0.144442,-0.04455 -0.188987,0 -0.04454,0.04454 0.02817,0.132643 0,0.188989 -0.0181,0.03618 -0.719778,0.737865 -0.755954,0.755952 -0.05634,0.02817 -0.144441,-0.04455 -0.188987,0 -0.04454,0.04454 0.02817,0.132643 0,0.188989 -0.03984,0.07968 -0.125992,0.125992 -0.188989,0.188986 -0.06299,0.063 -0.125992,0.125992 -0.188986,0.18899 -0.063,0.06299 -0.125992,0.125992 -0.18899,0.188986 -0.06299,0.063 -0.109302,0.149146 -0.188986,0.188989 -0.05635,0.02817 -0.144444,-0.04454 -0.188989,0 -0.04455,0.04455 0.02817,0.132644 0,0.188987 -0.09299,0.18597 -0.662967,0.569984 -0.755952,0.755954 -0.02817,0.05635 0.02817,0.132641 0,0.188987 -0.173966,0.34793 -0.392999,0.03005 -0.566965,0.377976 -0.05635,0.112691 0.08909,0.288888 0,0.377978 -0.04454,0.04454 -0.144444,-0.04454 -0.188989,0 -0.04454,0.04454 0.02817,0.132641 0,0.188987 -0.03984,0.07968 -0.149146,0.109304 -0.188987,0.188989 -0.05635,0.112689 0.05635,0.265284 0,0.377976 -0.07968,0.159369 -0.298291,0.218606 -0.377976,0.377976 -0.02817,0.05635 0.04455,0.144443 0,0.188989 -0.04454,0.04454 -0.144444,-0.04455 -0.188989,0 -0.03863,0.03863 0.03747,0.492029 0,0.566962 -0.03984,0.07968 -0.149146,0.109305 -0.188987,0.188989 -0.02817,0.05635 0.02817,0.132644 0,0.188987 -0.03984,0.07968 -0.149148,0.109305 -0.188989,0.188989 -0.03417,0.06835 0,0.813491 0,0.944941 0,0.755952 0,1.511903 0,2.267857 0,0.063 0,0.125992 0,0.188987 0,0.063 -0.04454,0.144444 0,0.188989 0.04454,0.04455 0.144444,-0.04454 0.188989,0 0.03863,0.03863 -0.03747,0.492033 0,0.566965 0.03984,0.07968 0.149146,0.109302 0.188987,0.188987 0.02817,0.05635 -0.04454,0.144444 0,0.188989 0.04454,0.04454 0.132644,-0.02817 0.188989,0 0.417862,0.208931 0.05865,0.117293 0.188987,0.377976 0.335314,0.670626 0.04266,-0.29265 0.377976,0.377976 0.02817,0.05634 -0.04454,0.144444 0,0.188989 0.04454,0.04454 0.132643,-0.02817 0.188989,0 0.07968,0.03984 0.125992,0.125992 0.188989,0.188987 0.063,0.063 0.125992,0.125991 0.188987,0.188989 0.063,0.06299 0.125992,0.125992 0.188989,0.188986 0.063,0.063 0.149146,0.109305 0.188987,0.18899 0.02817,0.05634 -0.04455,0.144444 0,0.188986 0.391025,0.391025 -0.01529,-0.597535 0.377975,0.188989 0.02817,0.05635 -0.04454,0.144444 0,0.18899 0.04455,0.04454 0.132644,-0.02817 0.18899,0 0.07968,0.03984 0.125991,0.125992 0.188989,0.188986 0.06299,0.063 0.149145,0.109305 0.188986,0.188989 0.02817,0.05635 -0.04454,0.144442 0,0.188987 0.08909,0.08909 0.265287,-0.05635 0.377976,0 0.07968,0.03984 0.109305,0.149146 0.188989,0.188989 0.05635,0.02817 0.132644,-0.02817 0.188987,0 0.07968,0.03984 0.109305,0.149146 0.188989,0.188987 0.112692,0.05634 0.265285,-0.05634 0.377976,0 0.07968,0.03984 0.109305,0.149148 0.188989,0.188989 0.112692,0.05635 0.288886,-0.08909 0.377976,0 0.04454,0.04454 -0.04454,0.144444 0,0.188989 0.08909,0.08909 0.288885,-0.08909 0.377976,0 0.04454,0.04454 -0.04454,0.144442 0,0.188987 0.0061,0.0061 0.521128,0 0.566965,0 1.385911,0 2.771825,0 4.157736,0 0.692957,0 1.385914,0 2.078871,0 0.063,0 0.125992,0 0.188987,0 0.063,0 0.144444,0.04454 0.188989,0 0.04454,-0.04454 -0.04454,-0.144444 0,-0.188987 0.04454,-0.04454 0.125992,0 0.188987,0 0.063,0 0.125992,0 0.188989,0 0.692957,0 1.385911,0 2.078868,0 0.566965,0 1.13393,0 1.700893,0 0.199009,0 0.788328,-0.03916 0.944941,0 0.379515,-0.04337 0.615825,0.295696 0.94494,0.377976 0.183346,0.04584 0.387676,-0.05976 0.566965,0 0.133633,0.04454 0.251984,0.125992 0.377976,0.188987 0.125992,0.063 0.260771,0.110852 0.377976,0.188989 0.432461,0.288308 -0.118173,0.149598 0.566965,0.377976 0.05976,0.01992 0.125992,0 0.188987,0 0.063,0.063 0.109304,0.149145 0.188989,0.188989 0.112691,0.05634 0.288885,-0.08909 0.377976,0 0.04454,0.04454 -0.04455,0.144441 0,0.188987 0.04454,0.04454 0.132643,-0.02817 0.188989,0 0.07968,0.03984 0.109302,0.149145 0.188986,0.188989 0.07493,0.03746 0.528328,-0.03864 0.566965,0 0.04455,0.04454 -0.04454,0.144441 0,0.188986 0.04455,0.04455 0.132644,-0.02817 0.188987,0 0.07968,0.03984 0.109305,0.149146 0.188989,0.18899 0.05635,0.02817 0.132644,-0.02817 0.18899,0 0.07968,0.03984 0.109302,0.149145 0.188986,0.188986 0.151191,0.0756 0.415774,-0.07559 0.566965,0 0.159369,0.07968 0.218607,0.298294 0.377976,0.377979 0.112691,0.05634 0.265284,-0.05635 0.377976,0 0.07968,0.03984 0.109304,0.149145 0.188989,0.188986 0.05635,0.02817 0.144441,-0.04454 0.188987,0 0.04454,0.04454 -0.04455,0.144444 0,0.188989 0.04454,0.04455 0.132643,-0.02817 0.188989,0 0.07968,0.03984 0.109304,0.149146 0.188986,0.188987 0.05635,0.02817 0.132644,-0.02817 0.18899,0 0.07968,0.03984 0.109304,0.149146 0.188989,0.188989 0.05634,0.02817 0.144441,-0.04454 0.188986,0 0.04455,0.04455 -0.04454,0.144444 0,0.188987 0.126368,0.12637 0.251609,-0.126368 0.377976,0 0.946264,0.946266 -0.985499,-0.288917 0.755954,0.755954 0.358908,0.215344 0.785858,0.334915 1.133928,0.566962 0.86578,0.577189 -0.803309,-0.30716 0.566965,0.377979 0.125992,0.063 0.24434,0.144441 0.377976,0.188986 0.05976,0.01992 0.144444,-0.04454 0.188986,0 0.04455,0.04455 -0.04454,0.144444 0,0.18899 0.04455,0.04454 0.132644,-0.02817 0.18899,0 0.07968,0.03984 0.109304,0.149145 0.188989,0.188986 0.112688,0.05635 0.265284,-0.05634 0.377976,0 0.226785,0.113393 0.340177,0.453573 0.566962,0.566965 0.112691,0.05635 0.288888,-0.08909 0.377978,0 0.04454,0.04455 -0.04454,0.144444 0,0.18899 0.503968,0 -0.063,-0.063 0.188987,0.188986 0.08909,0.08909 0.265287,-0.05635 0.377976,0 0.226787,0.113393 0.34018,0.453573 0.566965,0.566965 0.05635,0.02817 0.132643,-0.02817 0.188989,0 0.159367,0.07969 0.218607,0.298291 0.377976,0.377976 0.112691,0.05635 0.32163,-0.112691 0.377976,0 0.05634,0.112691 0,0.251984 0,0.377976 0,0.063 -0.04455,0.144444 0,0.188989 0.08909,0.08909 0.288885,-0.08909 0.377976,0 0.04454,0.04454 -0.02817,0.132641 0,0.188987 0.03984,0.07968 0.125991,0.125992 0.188989,0.188989 0.06299,0.06299 0.109302,0.149145 0.188986,0.188986 0.05635,0.02817 0.144444,-0.04454 0.18899,0 0.04454,0.04455 -0.04455,0.144444 0,0.18899 0.04454,0.04454 0.13264,-0.02817 0.188986,0 0.159369,0.07968 0.218609,0.298291 0.377976,0.377975 0.05635,0.02817 0.132643,-0.02817 0.188989,0 0.786524,0.393261 -0.202036,-0.01304 0.188989,0.377976 0.08909,0.08909 0.288886,-0.08909 0.377976,0 0.04454,0.04454 -0.04454,0.144444 0,0.188989 0.04454,0.04455 0.144442,-0.04454 0.188987,0 0.04454,0.04455 -0.04454,0.144444 0,0.188987 0.08909,0.08909 0.265287,-0.05634 0.377976,0 0.07968,0.03984 0.109304,0.149148 0.188989,0.188989 0.05634,0.02817 0.144444,-0.04454 0.188989,0 0.391022,0.391023 -0.597535,-0.01529 0.188987,0.377976 0.05634,0.02817 0.132643,-0.02817 0.188989,0 0.159369,0.07968 0.218607,0.298291 0.377976,0.377976 0.05634,0.02817 0.144444,-0.04454 0.188986,0 0.04454,0.04454 -0.02817,0.132643 0,0.188989 0.03984,0.07969 0.125995,0.125992 0.188989,0.188987 0.063,0.063 0.109305,0.149148 0.18899,0.188989 0.112688,0.05635 0.288885,-0.08909 0.377975,0 0.04455,0.04454 -0.05635,0.160816 0,0.188989 0.112692,0.05634 0.255747,-0.03056 0.377976,0 0.136658,0.03416 0.241319,0.154824 0.377976,0.188987 0.0063,0.0016 0.56596,-0.0011 0.566965,0 0.04454,0.04454 -0.04454,0.144444 0,0.188989 0.05852,0.05852 0.88642,-0.05852 0.944941,0 0.04454,0.04454 -0.04454,0.144441 0,0.188987 0.03863,0.03864 0.49203,-0.03747 0.566962,0 0.07968,0.03984 0.10931,0.149145 0.18899,0.188989 0.0497,0.02484 0.65713,0 0.75595,0 0.56697,0 1.13393,0 1.70089,0 0.69296,0 1.38592,0 2.07887,0 0.0988,0 0.70626,0.02484 0.75596,0 0.0797,-0.03984 0.1093,-0.149146 0.18898,-0.188989 0.11269,-0.05635 0.28889,0.08909 0.37798,0 0.0891,-0.08909 -0.0891,-0.288886 0,-0.377976 0.0445,-0.04455 0.14444,0.04454 0.18899,0 0.0445,-0.04455 -0.0446,-0.144444 0,-0.188987 0.0445,-0.04454 0.14444,0.04454 0.18899,0 0.39102,-0.391025 -0.59754,0.01529 0.18898,-0.377978 0.0563,-0.02817 0.14445,0.04454 0.18899,0 0.0445,-0.04454 -0.0282,-0.132641 0,-0.188987 0.0797,-0.159369 0.29829,-0.218607 0.37798,-0.377976 0.0282,-0.05635 -0.0282,-0.132643 0,-0.188989 0.0398,-0.07968 0.14914,-0.109305 0.18899,-0.188987 0.0282,-0.05634 -0.0282,-0.132643 0,-0.188989 0.39326,-0.786524 -0.0131,0.202036 0.37797,-0.188989 0.0446,-0.04454 -0.0282,-0.132641 0,-0.188987 0.0398,-0.07968 0.126,-0.125991 0.18899,-0.188989 0.063,-0.06299 0.1093,-0.149145 0.18899,-0.188986 0.0563,-0.02817 0.14444,0.04454 0.18899,0 0.0891,-0.08909 -0.0891,-0.288888 0,-0.377976 0.0445,-0.04454 0.14444,0.04454 0.18899,0 0.0445,-0.04454 -0.0282,-0.132644 0,-0.188989 0.0398,-0.07968 0.14914,-0.109305 0.18898,-0.18899 0.0282,-0.05634 -0.0282,-0.132641 0,-0.188986 0.0399,-0.07968 0.14915,-0.109305 0.18899,-0.188989 0.0282,-0.05635 -0.0445,-0.144442 0,-0.188987 0.39102,-0.391025 -0.0153,0.597535 0.37798,-0.188989 0.0563,-0.112692 -0.0891,-0.288886 0,-0.377976 0.39102,-0.391022 -0.0153,0.597535 0.37797,-0.188989 0.10085,-0.201687 -0.10084,-0.176287 0,-0.377976 0.0399,-0.07968 0.14915,-0.109302 0.18899,-0.188987 0.0282,-0.05635 -0.0445,-0.144444 0,-0.188989 0.39102,-0.391022 -0.0153,0.597535 0.37798,-0.188986 0.0282,-0.05635 -0.0282,-0.132644 0,-0.18899 0.62679,-0.626795 -0.0891,0.178179 0.18899,-0.377976 0.0398,-0.07968 0.14914,-0.109304 0.18898,-0.188989 0.0563,-0.112688 -0.0891,-0.288885 0,-0.377976 0.0446,-0.04454 0.13265,0.02817 0.18899,0 0.78653,-0.39326 -0.20203,0.01304 0.18899,-0.377975 0.0445,-0.04455 0.14444,0.04454 0.18899,0 0.0945,-0.09449 -0.0945,-0.472469 0,-0.566965 0.0445,-0.04455 0.13264,0.02817 0.18899,0 0.41786,-0.208931 0.0586,-0.117293 0.18898,-0.377976 0.0399,-0.07968 0.126,-0.125992 0.18899,-0.188987 0.1485,-0.148502 0.88475,-0.82456 0.94494,-0.944941 0.0282,-0.05635 -0.0282,-0.132643 0,-0.188989 0.0797,-0.159369 0.2983,-0.218607 0.37798,-0.377976 0.0282,-0.05634 -0.0445,-0.144444 0,-0.188989 0.0446,-0.04454 0.14444,0.04454 0.18899,0 0.0445,-0.04454 -0.0282,-0.132641 0,-0.188986 0.0398,-0.07968 0.14914,-0.109305 0.18899,-0.18899 0.0282,-0.05634 -0.0446,-0.144441 0,-0.188986 0.0445,-0.04455 0.12599,0 0.18898,0 0.25199,0 0.50397,0 0.75596,0 0.063,0 0.14444,0.04454 0.18898,0 0.0446,-0.04455 -0.0445,-0.144444 0,-0.188989 0.0446,-0.04455 0.13265,0.02817 0.18899,0 0.0797,-0.03984 0.10931,-0.149146 0.18899,-0.188987 0.11269,-0.05635 0.26529,0.05634 0.37798,0 0.22678,-0.113395 0.34018,-0.453573 0.56696,-0.566965 0.11269,-0.05635 0.26529,0.05635 0.37798,0 0.15937,-0.07968 0.21861,-0.298291 0.37797,-0.377976 0.0564,-0.02817 0.13265,0.02817 0.18899,0 0.6268,-0.626795 -0.17818,0.08909 0.37798,-0.188989 0.15937,-0.07968 0.21861,-0.298291 0.37797,-0.377976 0.11269,-0.05635 0.26529,0.05635 0.37798,0 0.78652,-0.393261 -0.20203,0.01304 0.18899,-0.377976 0.0891,-0.08909 0.26528,0.05635 0.37797,0 0.15937,-0.07968 0.21861,-0.298291 0.37798,-0.377976 0.12077,-0.06039 0.60384,0.0507 0.75595,0 0.13364,-0.04454 0.23985,-0.161364 0.37798,-0.188989 0.24709,-0.04942 0.50397,0 0.75595,0 0.50397,0 1.00794,0 1.51191,0 0.86032,0 0.0108,0.08909 0.56696,-0.188986 0.11269,-0.05635 0.26529,0.05634 0.37798,0 0.0797,-0.03984 0.1093,-0.149149 0.18898,-0.18899 0.11923,-0.05961 0.82572,0.05961 0.94495,0 0.0797,-0.03984 0.1093,-0.149145 0.18898,-0.188989 0.0564,-0.02817 0.13265,0.02817 0.18899,0 0.0797,-0.03984 0.10931,-0.149145 0.18899,-0.188986 0.11269,-0.05635 0.25845,0.03984 0.37798,0 0.13363,-0.04455 0.24434,-0.144444 0.37797,-0.18899 0.0598,-0.01992 0.12599,0 0.18899,0 0.16038,0 1.02974,0.03473 1.13393,0 0.0845,-0.02817 0.1093,-0.149145 0.18899,-0.188986 0.11269,-0.05635 0.28888,0.08909 0.37797,0 0.0446,-0.04454 -0.0445,-0.144444 0,-0.188989 0.0891,-0.08909 0.26529,0.05634 0.37798,0 0.0797,-0.03984 0.1093,-0.149146 0.18899,-0.188987 0.11878,-0.05939 0.63717,0.05939 0.75595,0 0.78652,-0.393263 -0.20204,0.01304 0.18899,-0.377978 0.0891,-0.08909 0.28888,0.08909 0.37797,0 0.0445,-0.04454 -0.0445,-0.144442 0,-0.188987 0.0445,-0.04454 0.13265,0.02817 0.18899,0 0.0362,-0.0181 0.73787,-0.719778 0.75595,-0.755952 0.0282,-0.05635 -0.0282,-0.132643 0,-0.188989 0.0399,-0.07968 0.14915,-0.109305 0.18899,-0.188989 0.0282,-0.05634 -0.0445,-0.144441 0,-0.188987 0.39102,-0.391022 -0.0153,0.597535 0.37798,-0.188989 0.0282,-0.05635 -0.0282,-0.132641 0,-0.188987 0.0797,-0.159369 0.29829,-0.218609 0.37797,-0.377975 0.0282,-0.05635 -0.0445,-0.144444 0,-0.18899 0.0445,-0.04454 0.13265,0.02817 0.18899,0 0.0362,-0.0181 0.73787,-0.719775 0.75595,-0.755951 0.0282,-0.05635 -0.0445,-0.144444 0,-0.188989 0.0445,-0.04455 0.13265,0.02817 0.18899,0 0.0797,-0.03984 0.126,-0.125992 0.18899,-0.188987 0.063,-0.063 0.14915,-0.109305 0.18899,-0.188989 0.0564,-0.112692 -0.0564,-0.265285 0,-0.377976 0.39326,-0.786524 -0.013,0.202036 0.37798,-0.188989 0.0891,-0.08909 -0.0564,-0.265285 0,-0.377976 0.0398,-0.07968 0.14914,-0.109305 0.18898,-0.188987 0.0282,-0.05635 -0.0282,-0.132643 0,-0.188989 0.0399,-0.07968 0.14915,-0.109305 0.18899,-0.188989 0.0282,-0.05634 0,-0.125992 0,-0.188987 0,-0.063 0.0446,-0.144444 0,-0.188989 -0.0445,-0.04454 -0.14444,0.04454 -0.18899,0 -0.0445,-0.04454 0.0282,-0.132641 0,-0.188986 -0.0398,-0.07968 -0.12599,-0.125992 -0.18898,-0.18899 -0.6268,-0.626795 0.0891,0.178181 -0.18899,-0.377975 -0.0398,-0.07968 -0.14915,-0.109305 -0.18899,-0.18899 -0.0564,-0.112688 0.0891,-0.288885 0,-0.377976 -0.0446,-0.04454 -0.14444,0.04455 -0.18899,0 -0.0445,-0.04454 0.0282,-0.13264 0,-0.188986 -0.0398,-0.07968 -0.14914,-0.109305 -0.18899,-0.188989 -0.0563,-0.112692 0.0564,-0.265285 0,-0.377976 -0.20893,-0.417865 -0.11729,-0.05865 -0.37797,-0.188989 -0.41787,-0.208931 -0.0587,-0.117293 -0.18899,-0.377976 -0.39326,-0.786522 0.013,0.202036 -0.37798,-0.188987 -0.0891,-0.08909 0.0891,-0.288888 0,-0.377976 -0.39102,-0.391025 0.0153,0.597535 -0.37797,-0.188989 -0.0282,-0.05635 0.0282,-0.132643 0,-0.188989 -0.0399,-0.07968 -0.14915,-0.109302 -0.18899,-0.188987 -0.0282,-0.05635 0.0445,-0.144444 0,-0.188989 -0.0445,-0.04454 -0.14445,0.04454 -0.18899,0 -0.0445,-0.04454 0.0445,-0.144441 0,-0.188986 -0.0445,-0.04455 -0.14444,0.04454 -0.18899,0 -0.0445,-0.04455 0.0446,-0.144444 0,-0.18899 -0.0445,-0.04454 -0.14444,0.04455 -0.18899,0 -0.0445,-0.04454 0.0445,-0.144444 0,-0.188986 -0.39102,-0.391025 0.0153,0.597535 -0.37797,-0.188989 -0.0564,-0.112692 0.0891,-0.288886 0,-0.377976 -0.0445,-0.04455 -0.14445,0.04454 -0.18899,0 -0.0445,-0.04455 0.0445,-0.144444 0,-0.188989 -0.0445,-0.04455 -0.14444,0.04454 -0.18899,0 -0.0891,-0.08909 0.0891,-0.288886 0,-0.377976 -0.0445,-0.04455 -0.14444,0.04454 -0.18899,0 -0.39102,-0.391023 0.59754,0.01529 -0.18898,-0.377976 -0.0564,-0.02817 -0.14445,0.04454 -0.18899,0 -0.12621,-0.126212 0.12621,-0.251764 0,-0.377976 -0.0891,-0.08909 -0.28889,0.08909 -0.37798,0 -0.0445,-0.04454 0.0446,-0.144444 0,-0.188989 -0.0445,-0.04454 -0.13264,0.02817 -0.18899,0 -0.15936,-0.07968 -0.21861,-0.298291 -0.37797,-0.377976 -0.11269,-0.05635 -0.26529,0.05635 -0.37798,0 -0.15937,-0.07968 -0.21861,-0.298291 -0.37798,-0.377976 -0.0563,-0.02817 -0.13264,0.02817 -0.18898,0 -0.0797,-0.03984 -0.12599,-0.125992 -0.18899,-0.188989 -0.063,-0.063 -0.14915,-0.109302 -0.18899,-0.188987 -0.0282,-0.05635 0.0445,-0.144444 0,-0.188989 -0.39102,-0.391022 0.0153,0.597535 -0.37798,-0.188986 -0.0282,-0.05635 0.0446,-0.144444 0,-0.18899 -0.0891,-0.08909 -0.26528,0.05635 -0.37797,0 -0.15937,-0.07968 -0.21861,-0.298291 -0.37798,-0.377975 -0.0563,-0.02817 -0.12599,0 -0.18899,0 -0.063,-0.063 -0.1093,-0.149146 -0.18898,-0.18899 -0.1127,-0.05634 -0.28889,0.08909 -0.37798,0 -0.39102,-0.391022 0.59754,0.01529 -0.18899,-0.377975 -0.11269,-0.05635 -0.26528,0.05635 -0.37797,0 -0.15937,-0.07969 -0.21861,-0.298292 -0.37798,-0.377976 -0.0564,-0.02817 -0.13264,0.02817 -0.18899,0 -0.0797,-0.03984 -0.1093,-0.149146 -0.18899,-0.188987 -0.0563,-0.02817 -0.12599,0 -0.18899,0 -0.063,0 -0.12599,0 -0.18898,0 -0.31498,0 -0.62996,0 -0.94494,0 -0.37798,0 -0.75596,0 -1.13393,0 -0.063,0 -0.126,0 -0.18899,0 -0.063,0 -0.13264,-0.02817 -0.18899,0 -0.0797,0.03984 -0.1093,0.149146 -0.18899,0.188987 -0.11269,0.05635 -0.28888,-0.08909 -0.37797,0 -0.0446,0.04454 0.0445,0.144444 0,0.188989 -0.0517,0.05171 -0.65343,-0.05126 -0.75596,0 -0.0797,0.03984 -0.1093,0.149146 -0.18898,0.188987 -0.15119,0.0756 -0.41578,-0.07559 -0.56697,0 -0.0797,0.03984 -0.1093,0.149145 -0.18899,0.188989 -0.0683,0.03417 -0.81349,0 -0.94494,0 -0.31498,0 -0.62996,0 -0.94494,0 -0.063,0 -0.14444,0.04454 -0.18898,0 -0.0446,-0.04454 0.0445,-0.144444 0,-0.188989 -0.0891,-0.08909 -0.26529,0.05635 -0.37798,0 -0.0797,-0.03984 -0.10931,-0.149146 -0.18899,-0.188987 -0.0563,-0.02817 -0.13264,0.02817 -0.18899,0 -0.78652,-0.393263 0.20204,0.01304 -0.18899,-0.377976 -0.12636,-0.12637 -0.2516,0.126368 -0.37797,0 -0.0891,-0.08909 0.0891,-0.288888 0,-0.377978 -0.0446,-0.04454 -0.14445,0.04454 -0.18899,0 -0.0445,-0.04454 0.0445,-0.144442 0,-0.188987 -0.0445,-0.04454 -0.14444,0.04454 -0.18899,0 -0.0445,-0.04454 0.0282,-0.132643 0,-0.188989 -0.62679,-0.626793 0.0891,0.178181 -0.18899,-0.377976 -0.62679,-0.626795 0.0891,0.178181 -0.18898,-0.377976 -0.0399,-0.07968 -0.14915,-0.109304 -0.18899,-0.188989 -0.0342,-0.06834 0,-0.81349 0,-0.944938 0,-0.063 0.0445,-0.144444 0,-0.188989 -0.0446,-0.04455 -0.14445,0.04454 -0.18899,0 -0.0613,-0.06127 0.06,-0.82499 0,-0.944941 -0.0398,-0.07968 -0.14914,-0.109305 -0.18899,-0.188987 -0.0248,-0.04969 0,-0.657127 0,-0.755954 0,-0.44097 0,-0.881944 0,-1.322917 0,-0.08511 -0.0288,-0.509447 0,-0.566962 0.0399,-0.07968 0.14915,-0.109305 0.18899,-0.188989 0.0594,-0.118782 -0.0594,-0.63717 0,-0.755952 0.0398,-0.07968 0.14915,-0.109305 0.18899,-0.188989 0.0282,-0.05635 -0.0446,-0.144444 0,-0.188987 0.0445,-0.04454 0.14444,0.04454 0.18899,0 0.0559,-0.05592 -0.0585,-0.638892 0,-0.755954 0.0797,-0.159369 0.29829,-0.218607 0.37797,-0.377976 0.0563,-0.112691 -0.0891,-0.288885 0,-0.377976 0.0445,-0.04454 0.14445,0.04455 0.18899,0 0.0445,-0.04454 0,-0.125992 0,-0.188989 0,-0.206356 -0.0407,-0.822719 0,-0.944938 0.0445,-0.133636 0.15483,-0.241319 0.18899,-0.377978 0.0611,-0.24446 -0.0414,-0.507397 0,-0.755952 0.0427,-0.256204 0.1603,-0.4978 0.18899,-0.755952 0.0626,-0.563496 -0.0703,-1.138306 0,-1.700892 0.0322,-0.257733 0.15225,-0.498824 0.18898,-0.755954 0.0267,-0.187087 -0.0371,-0.381646 0,-0.566963 0.0276,-0.138128 0.16137,-0.23985 0.18899,-0.377976 0.0371,-0.185319 0,-0.377978 0,-0.566965 0,-0.188989 0,-0.377975 0,-0.566965 0,-0.06299 -0.0199,-0.129225 0,-0.188986 0.0446,-0.133636 0.15483,-0.241319 0.18899,-0.377979 0.023,-0.09207 -0.05,-0.656018 0,-0.755951 0.0398,-0.07968 0.14915,-0.109305 0.18899,-0.188987 0.0288,-0.05752 0,-0.481854 0,-0.566965 0,-0.314981 0,-0.62996 0,-0.944941 0,-0.125992 0.0247,-0.254431 0,-0.377976 -0.0391,-0.195341 -0.15624,-0.370464 -0.18899,-0.566965 -0.0311,-0.186417 0.0371,-0.381645 0,-0.566965 -0.0276,-0.138125 -0.15482,-0.241318 -0.18899,-0.377975 -0.0306,-0.12223 0,-0.251984 0,-0.377976 -0.063,-0.125992 -0.14444,-0.244341 -0.18899,-0.377976 -0.0199,-0.05976 0.0153,-0.127873 0,-0.188988 -0.0483,-0.193263 -0.15623,-0.370464 -0.18898,-0.566965 -0.0311,-0.186416 0.0371,-0.381646 0,-0.566964 -0.0276,-0.138128 -0.13668,-0.247188 -0.18899,-0.377976 -0.074,-0.184963 -0.12599,-0.377976 -0.18899,-0.566964 -0.12599,-0.377976 -0.28135,-0.747403 -0.37798,-1.133929 -0.0153,-0.06112 0.0199,-0.129225 0,-0.188988 -0.4563,-1.368919 0.0545,0.29796 -0.37797,-0.566964 -0.0282,-0.05635 0.0445,-0.144443 0,-0.188988 -0.0446,-0.04455 -0.14445,0.04454 -0.18899,0 -0.0891,-0.08909 0.0891,-0.288887 0,-0.377976 -0.0891,-0.08909 -0.26529,0.05635 -0.37798,0 -0.34793,-0.173966 -0.03,-0.393 -0.37797,-0.566965 -0.0749,-0.03747 -0.52833,0.03864 -0.56697,0 -0.0445,-0.04455 0.0446,-0.144443 0,-0.188988 -0.0445,-0.04454 -0.12599,0 -0.18898,0 -0.063,0 -0.126,0 -0.18899,0 -0.0458,0 -0.56089,0.0061 -0.56697,0 -0.0445,-0.04454 0.0446,-0.144443 0,-0.188988 -0.0445,-0.04454 -0.12599,0 -0.18899,0 -0.063,0 -0.12599,0 -0.18898,0 -0.37798,0 -0.75596,0 -1.13393,0 -0.0851,0 -0.50945,-0.02876 -0.56697,0 -0.0797,0.03984 -0.1093,0.149146 -0.18898,0.188988 -0.11923,0.05961 -0.82572,-0.05961 -0.94494,0 -0.0797,0.03984 -0.10931,0.149146 -0.18899,0.188988 -0.0564,0.02817 -0.13264,-0.02817 -0.18899,0 -0.0797,0.03984 -0.10931,0.149146 -0.18899,0.188988 -0.0563,0.02817 -0.13264,-0.02817 -0.18899,0 -0.0797,0.03984 -0.1093,0.149146 -0.18899,0.188988 -0.0749,0.03747 -0.52832,-0.03864 -0.56696,0 -0.0445,0.04454 0.0445,0.144444 0,0.188989 -0.0445,0.04454 -0.13264,-0.02817 -0.18899,0 -0.0797,0.03984 -0.1093,0.149145 -0.18899,0.188988 -0.0749,0.03747 -0.52832,-0.03864 -0.56696,0 -0.0445,0.04454 0.0445,0.144443 0,0.188988 -0.0445,0.04454 -0.13264,-0.02817 -0.18899,0 -0.15937,0.07968 -0.2186,0.298291 -0.37797,0.377976 -0.1127,0.05634 -0.26529,-0.05635 -0.37798,0 -0.0797,0.03984 -0.1093,0.149146 -0.18899,0.188988 -0.0563,0.02817 -0.14444,-0.04454 -0.18899,0 -0.0445,0.04454 0.0446,0.144443 0,0.188988 -0.0945,0.09449 -0.47247,-0.09449 -0.56696,0 -0.0446,0.04455 0.0282,0.132643 0,0.188988 -0.39326,0.786523 0.013,-0.202035 -0.37798,0.188988 -0.0445,0.04455 0.0446,0.144443 0,0.188988 -0.0945,0.09449 -0.47247,-0.09449 -0.56696,0 -0.0446,0.04454 0.0445,0.144443 0,0.188988 -0.0446,0.04454 -0.13264,-0.02817 -0.18899,0 -0.0797,0.03984 -0.1093,0.149146 -0.18899,0.188989 -0.11269,0.05635 -0.26528,-0.05635 -0.37797,0 -0.15937,0.07968 -0.21861,0.298291 -0.37798,0.377976 -0.0563,0.02817 -0.14444,-0.04454 -0.18899,0 -0.0445,0.04455 0.0446,0.144443 0,0.188988 -0.0945,0.09449 -0.47247,-0.09449 -0.56696,0 -0.0446,0.04454 0.0445,0.144443 0,0.188988 -0.0446,0.04454 -0.14444,-0.04454 -0.18899,0 -0.0445,0.04454 0.0446,0.144443 0,0.188988 -0.0891,0.08909 -0.26529,-0.05635 -0.37798,0 -0.30253,0.151265 -0.0754,0.226711 -0.37797,0.377976 -0.0564,0.02817 -0.13264,-0.02817 -0.18899,0 -0.0797,0.03984 -0.10931,0.149146 -0.18899,0.188988 -0.112688,0.05635 -0.288885,-0.08909 -0.377975,0 -0.04455,0.04454 0.04454,0.144443 0,0.188988 -0.04455,0.04454 -0.132644,-0.02817 -0.188987,0 -0.07968,0.03984 -0.109305,0.149146 -0.188989,0.188988 -0.112692,0.05635 -0.265285,-0.05635 -0.377976,0 -0.159369,0.07969 -0.218607,0.298292 -0.377976,0.377977 -0.112691,0.05635 -0.265287,-0.05635 -0.377976,0 -0.07968,0.03984 -0.109304,0.149145 -0.188989,0.188988 -0.05635,0.02817 -0.144444,-0.04454 -0.188989,0 -0.04454,0.04454 0.04454,0.144443 0,0.188988 -0.08909,0.08909 -0.265285,-0.05635 -0.377976,0 -0.07968,0.03984 -0.109302,0.149146 -0.188987,0.188988 -0.15119,0.07559 -0.415774,-0.07559 -0.566965,0 -0.07968,0.03984 -0.109304,0.149146 -0.188989,0.188988 -0.112688,0.05635 -0.265284,-0.05634 -0.377976,0 -0.07968,0.03984 -0.109302,0.149145 -0.188986,0.188989 -0.151191,0.07559 -0.415774,-0.0756 -0.566965,0 -0.07968,0.03984 -0.109305,0.149146 -0.188989,0.188987 -0.05634,0.02817 -0.132641,-0.02817 -0.188987,0 -0.07968,0.03984 -0.109305,0.149145 -0.188989,0.188989 -0.05635,0.02817 -0.132641,-0.02817 -0.188987,0 -0.07968,0.03984 -0.109304,0.149145 -0.188989,0.188986 -0.151191,0.0756 -0.415774,-0.07559 -0.566965,0 -0.159367,0.07968 -0.218607,0.298294 -0.377976,0.377979 -0.07493,0.03746 -0.528328,-0.03864 -0.566962,0 -0.04455,0.04454 0.04454,0.144441 0,0.188986 -0.04455,0.04455 -0.132644,-0.02817 -0.188989,0 -0.07969,0.03984 -0.109305,0.149146 -0.18899,0.18899 -0.112688,0.05634 -0.288885,-0.08909 -0.377976,0 -0.04454,0.04454 0.04455,0.144441 0,0.188986 -0.09449,0.0945 -0.472469,-0.09449 -0.566962,0 -0.04454,0.04454 0.04454,0.144444 0,0.188989 -0.12637,0.126368 -0.251608,-0.126367 -0.377978,0 -0.04454,0.04455 0.04454,0.144444 0,0.188987 -0.0061,0.0061 -0.521129,0 -0.566963,0 -0.692957,0 -1.385914,0 -2.078871,0 -0.232971,0 -0.742873,0.04042 -0.944938,0 -0.254696,-0.05094 -0.50397,-0.125992 -0.755954,-0.188987 z"
         style="fill:none;stroke:none;stroke-width:0.26458332px;stroke-linecap:butt;stroke-linejoin:miter;stroke-opacity:1" />
    </g>
    <path
       style="fill:none;fill-opacity:1;stroke:none;stroke-width:0.7626546;stroke-miterlimit:4;stroke-dasharray:18.30371206, 18.30371206;stroke-dashoffset:21.35433006"
       d="m 378.3181,300.734 c -0.1214,-0.19643 -0.58089,-0.35714 -1.02108,-0.35714 -0.44019,0 -0.95303,-0.14513 -1.13963,-0.32252 -0.18661,-0.17738 -1.0625,-0.40807 -1.94643,-0.51265 -2.49971,-0.29572 -4.02786,-0.60828 -5,-1.02267 -1.88479,-0.80341 -2.34368,-0.96599 -3.033,-1.07455 -0.39136,-0.0616 -0.92245,-0.55206 -1.1802,-1.08984 -0.25775,-0.53777 -0.66522,-0.97777 -0.90549,-0.97777 -0.24027,0 -0.70835,-0.28125 -1.04016,-0.625 -1.3926,-1.44267 -2.30456,-2.14982 -3.48401,-2.70155 -0.6875,-0.3216 -1.78705,-1.06461 -2.44344,-1.65113 -0.6564,-0.58651 -1.54032,-1.1746 -1.96429,-1.30685 -0.42396,-0.13225 -1.17263,-0.63945 -1.6637,-1.12709 -0.49107,-0.48765 -1.25735,-1.02557 -1.70283,-1.19539 -0.44549,-0.16981 -0.96383,-0.71342 -1.15188,-1.20802 -0.18804,-0.49459 -0.57627,-0.89926 -0.86273,-0.89926 -0.30269,0 -0.56816,-0.41135 -0.63384,-0.98214 -0.0849,-0.73744 -0.33547,-1.01285 -1.00586,-1.10539 -0.49107,-0.0678 -1.18037,-0.42939 -1.53177,-0.80357 -0.3514,-0.37418 -0.87002,-0.68033 -1.15248,-0.68033 -0.28247,0 -0.77272,-0.39551 -1.08947,-0.87893 -0.31674,-0.48341 -0.91077,-0.98521 -1.32006,-1.11512 -0.40929,-0.1299 -1.06808,-0.53795 -1.46397,-0.90678 -0.39589,-0.36883 -1.05549,-0.67059 -1.46578,-0.67059 -0.41029,0 -1.16906,-0.48215 -1.68615,-1.07143 -0.5614,-0.63979 -1.29054,-1.07143 -1.80989,-1.07143 -0.47835,0 -1.16061,-0.32143 -1.51615,-0.71429 -0.35553,-0.39285 -0.9249,-0.71428 -1.26527,-0.71428 -0.34038,0 -1.40029,-0.53621 -2.35537,-1.19159 -0.95507,-0.65536 -2.784,-1.6904 -4.06427,-2.30008 -1.28711,-0.61294 -2.68225,-1.58797 -3.12068,-2.18097 -0.4361,-0.58986 -1.83324,-1.56897 -3.10475,-2.17581 -1.27152,-0.60684 -2.40166,-1.24865 -2.51142,-1.42626 -0.28627,-0.46318 -2.33324,-1.43958 -3.01802,-1.43958 -0.31902,0 -0.85526,-0.32143 -1.19163,-0.71428 -0.34661,-0.40481 -1.05355,-0.71429 -1.63165,-0.71429 -1.14181,0 -2.96957,-0.81162 -3.63594,-1.61455 -0.24115,-0.29057 -0.95637,-0.52831 -1.58937,-0.52831 -0.69735,0 -1.40567,-0.28149 -1.79734,-0.71428 -0.35553,-0.39286 -1.01381,-0.71429 -1.46285,-0.71429 -0.44903,0 -0.91575,-0.16071 -1.03715,-0.35714 -0.1214,-0.19643 -0.51299,-0.35714 -0.8702,-0.35714 -0.35722,0 -0.83665,-0.22553 -1.06542,-0.50118 -0.69406,-0.83629 -4.13429,-2.35597 -5.33342,-2.35597 -0.61952,0 -1.72612,-0.32143 -2.45911,-0.71428 -1.24419,-0.66685 -2.01503,-0.71429 -11.60585,-0.71429 -6.61066,0 -10.27314,0.12733 -10.27314,0.35714 0,0.23148 -4.52019,0.35715 -12.84628,0.35715 -12.18428,0 -12.91182,-0.0368 -14.11801,-0.71429 -0.69945,-0.39286 -1.57878,-0.71428 -1.95407,-0.71428 -0.37529,0 -0.78167,-0.16072 -0.90307,-0.35715 -0.1214,-0.19643 -0.50543,-0.35714 -0.85341,-0.35714 -1.64655,0 -5.45053,-2.69481 -6.4278,-4.55357 -0.23237,-0.44197 -0.6071,-0.80357 -0.83273,-0.80357 -0.55016,0 -5.27892,-4.91459 -5.27892,-5.48636 0,-0.24791 -0.48214,-0.80721 -1.07143,-1.24289 -0.82625,-0.61087 -1.07143,-1.0709 -1.07143,-2.01037 0,-0.67003 -0.16071,-1.31755 -0.35714,-1.43895 -0.21597,-0.13348 -0.35714,-2.67867 -0.35714,-6.43879 0,-5.55606 0.076,-6.35345 0.71428,-7.48979 0.39286,-0.69945 0.71429,-1.48954 0.71429,-1.75575 0,-0.65481 0.77626,-2.10724 1.52801,-2.85899 0.33816,-0.33817 0.61485,-0.98025 0.61485,-1.42684 0,-0.4466 0.32143,-1.10288 0.71428,-1.45842 0.39286,-0.35553 0.71429,-1.00587 0.71429,-1.4452 0,-0.54836 0.27246,-0.86718 0.86905,-1.01691 0.47798,-0.11997 0.98345,-0.57935 1.12326,-1.02086 0.13981,-0.44151 4.08802,-4.63885 8.7738,-9.32742 4.68578,-4.68858 8.53027,-8.70644 8.54331,-8.92857 0.0378,-0.64309 2.28573,-3.58273 3.04006,-3.97543 1.16932,-0.60874 2.34407,-1.74865 2.67776,-2.59833 0.17555,-0.447 0.60284,-0.91853 0.94954,-1.04784 0.3467,-0.12932 1.20652,-0.77604 1.91072,-1.43718 0.7042,-0.66113 2.3715,-1.75104 3.70512,-2.42201 1.48468,-0.74699 3.0656,-1.91704 4.07773,-3.01796 1.05689,-1.14961 1.94647,-1.798 2.46681,-1.798 0.45354,0 0.91079,-0.27669 1.03285,-0.625 0.31504,-0.899 2.31322,-2.94643 2.87554,-2.94643 0.26228,0 0.57543,-0.28125 0.69589,-0.625 0.3144,-0.89716 2.31272,-2.94643 2.87317,-2.94643 0.26097,0 0.61279,-0.36161 0.78181,-0.80357 0.37684,-0.98536 1.37227,-1.88771 2.44204,-2.2137 0.4415,-0.13454 0.89228,-0.60138 1.00171,-1.03741 0.10944,-0.43604 0.55178,-0.94765 0.98298,-1.13691 0.94096,-0.41302 2.74828,-3.84678 2.74828,-5.22152 0,-0.53898 0.21394,-1.10849 0.47541,-1.26557 0.59925,-0.35999 1.66744,-2.50934 1.66744,-3.35511 0,-0.35109 0.16072,-0.73767 0.35715,-0.85907 0.19643,-0.1214 0.35714,-0.60354 0.35714,-1.07142 0,-0.46789 0.16071,-0.95003 0.35714,-1.07143 0.22721,-0.14042 0.35715,-4.81811 0.35715,-12.85715 0,-8.03903 0.12993,-12.71672 0.35714,-12.85714 0.19643,-0.1214 0.35714,-0.52778 0.35714,-0.90307 0,-0.37529 0.32143,-1.25462 0.71429,-1.95407 0.39285,-0.69945 0.71428,-1.82445 0.71428,-2.5 0,-0.67555 0.32143,-1.80055 0.71429,-2.5 0.39286,-0.69945 0.71428,-1.43427 0.71428,-1.63294 0,-0.19867 0.32143,-0.70623 0.71429,-1.12791 0.39286,-0.42168 0.71429,-0.9606 0.71429,-1.1976 0,-0.71974 2.94749,-3.54642 4.39656,-4.21637 0.74847,-0.34604 1.4487,-0.85809 1.55607,-1.13789 0.10737,-0.27979 0.50102,-0.50872 0.87479,-0.50872 0.37376,0 0.95478,-0.32143 1.29116,-0.71429 0.33637,-0.39285 1.05045,-0.71428 1.58684,-0.71428 0.53639,0 1.42478,-0.1833 1.9742,-0.40733 0.54942,-0.22404 1.56145,-0.63457 2.24895,-0.9123 0.6875,-0.27773 1.67658,-0.73728 2.19796,-1.02124 0.52138,-0.28395 1.4406,-0.51627 2.04271,-0.51627 0.60211,0 1.66702,-0.32143 2.36647,-0.71429 0.92389,-0.51891 1.93373,-0.71429 3.69205,-0.71429 2.0377,0 2.79908,0.19056 4.81609,1.20538 1.51578,0.76264 2.69392,1.6481 3.20752,2.41071 1.06827,1.58623 2.11809,1.76903 11.37388,1.98058 6.92103,0.15817 7.46955,0.123 8.90637,-0.5712 0.84211,-0.40686 1.72568,-0.73975 1.96348,-0.73975 0.2378,0 1.34893,-0.48214 2.46918,-1.07143 1.12025,-0.58929 2.3435,-1.07143 2.71833,-1.07143 0.37484,0 0.95674,-0.32143 1.29311,-0.71428 0.33638,-0.39286 1.0417,-0.71429 1.56738,-0.71429 0.52568,0 1.87236,-0.48214 2.99261,-1.07143 1.12025,-0.58928 2.49316,-1.07143 3.0509,-1.07143 0.55775,0 1.11341,-0.16071 1.23481,-0.35714 0.1214,-0.19643 0.60355,-0.35714 1.07143,-0.35714 0.46789,0 0.95003,-0.16072 1.07143,-0.35715 0.1214,-0.196424 0.76426,-0.357138 1.42857,-0.357138 0.66432,0 1.30717,-0.160714 1.42857,-0.357143 0.1214,-0.196429 0.58812,-0.357143 1.03716,-0.357143 0.44903,0 1.10731,-0.321428 1.46284,-0.714286 0.35554,-0.392857 1.02488,-0.714285 1.48743,-0.714285 0.46254,0 1.11621,-0.321429 1.45258,-0.714286 0.33638,-0.392857 0.85148,-0.714286 1.14467,-0.714286 0.79008,0 6.45104,-2.835574 6.45104,-3.231328 0,-0.187055 0.37688,-0.3401 0.8375,-0.3401 0.46063,0 1.12839,-0.321429 1.48393,-0.714286 0.35553,-0.392857 0.99651,-0.714286 1.4244,-0.714286 0.42789,0 1.24673,-0.477678 1.81964,-1.061508 0.57292,-0.583829 1.31803,-1.065972 1.65581,-1.071428 0.33777,-0.0055 1.14134,-0.305975 1.78571,-0.667818 0.64437,-0.361844 1.7484,-0.766061 2.45341,-0.898262 0.84886,-0.159175 1.44225,-0.540119 1.75678,-1.127816 0.28245,-0.527779 0.78992,-0.887453 1.2521,-0.887453 0.42744,0 1.06804,-0.321429 1.42358,-0.714286 0.35553,-0.392857 1.01181,-0.714286 1.45841,-0.714286 0.4466,0 1.08867,-0.276683 1.42684,-0.614851 0.75175,-0.751746 2.20418,-1.528006 2.85899,-1.528006 0.26622,0 1.05631,-0.321429 1.75576,-0.714286 0.69945,-0.392857 1.49158,-0.714285 1.76031,-0.714285 0.26872,0 1.40515,-0.482143 2.5254,-1.071429 1.44914,-0.762293 2.5355,-1.071429 3.76519,-1.071429 0.9506,0 1.8277,-0.160714 1.9491,-0.357142 0.29003,-0.469288 7.5671,-0.469288 7.85714,0 0.1214,0.196428 0.93446,0.357142 1.80679,0.357142 0.87234,0 1.58607,0.160715 1.58607,0.357143 0,0.196429 0.52232,0.358159 1.16071,0.359401 0.91436,0.0018 1.28984,0.229187 1.7691,1.071429 0.33462,0.588044 0.85694,1.06917 1.16072,1.06917 0.30378,0 0.55232,0.205255 0.55232,0.456121 0,0.250867 0.48215,0.984 1.07143,1.629185 0.58929,0.645186 1.07143,1.386352 1.07143,1.647038 0,0.260685 0.64286,2.338328 1.42857,4.616986 0.78572,2.278656 1.42857,4.458323 1.42857,4.843702 0,0.385379 0.2566,1.632638 0.57021,2.771686 1.56624,5.688579 1.96036,7.939129 2.16979,12.390039 0.11105,2.36 0.0369,4.18645 -0.18839,4.64285 -0.37097,0.7514 -0.50614,1.64453 -1.11382,7.35954 -0.17754,1.66964 -0.51334,4.16071 -0.74623,5.53571 -0.23289,1.375 -0.46283,4.12685 -0.51096,6.11522 -0.0481,1.98837 -0.28651,4.44468 -0.52971,5.45846 -0.24321,1.01378 -0.35311,2.18388 -0.24423,2.60022 0.10887,0.41633 -0.0345,1.20651 -0.31864,1.75594 -0.28412,0.54944 -0.51659,1.80104 -0.51659,2.78135 0,0.9803 -0.16071,1.8817 -0.35714,2.0031 -0.19643,0.1214 -0.35714,0.58811 -0.35714,1.03715 0,0.44904 -0.32143,1.10731 -0.71429,1.46285 -0.39286,0.35553 -0.71429,1.09876 -0.71429,1.65163 0,0.55287 -0.33174,1.59584 -0.7372,2.31773 -0.43876,0.78118 -0.69569,1.79432 -0.63466,2.50267 0.0564,0.65458 -0.094,1.38669 -0.33423,1.62691 -0.60333,0.60334 -0.61331,10.6888 -0.0112,11.29094 0.24355,0.24356 0.38581,1.17519 0.33259,2.17803 -0.0512,0.96384 0.0788,1.85859 0.28868,1.98834 0.20993,0.12975 0.3817,1.01664 0.3817,1.97087 0,1.30192 0.31776,2.33395 1.27303,4.13461 0.70016,1.3198 1.50374,2.63034 1.78571,2.91232 0.28198,0.28197 0.51269,0.72041 0.51269,0.97431 0,0.66396 3.77106,3.05878 4.81658,3.05878 0.29731,0 0.54056,0.16071 0.54056,0.35714 0,0.21816 1.65964,0.35714 4.26463,0.35714 2.45785,0 4.35816,-0.15131 4.48537,-0.35714 0.1214,-0.19643 0.76426,-0.35714 1.42857,-0.35714 0.66431,0 1.30717,-0.16072 1.42857,-0.35714 0.1214,-0.19643 0.84921,-0.35715 1.61736,-0.35715 0.76815,0 1.96891,-0.32143 2.66836,-0.71428 1.1011,-0.61846 1.93372,-0.71429 6.20599,-0.71429 5.03274,0 6.46425,0.30612 7.55016,1.61456 0.24115,0.29056 0.73455,0.5283 1.09644,0.5283 0.3619,0 0.83001,0.32143 1.04026,0.71428 0.21025,0.39286 0.67336,0.71429 1.02913,0.71429 0.82171,0 2.6901,0.92457 3.26274,1.61455 0.24115,0.29057 0.5757,0.52831 0.74345,0.52831 0.16775,0 1.1475,0.80357 2.17722,1.78571 1.02971,0.98214 2.05323,1.78572 2.27448,1.78572 0.22125,0 0.69317,0.32142 1.0487,0.71428 0.35553,0.39286 0.98312,0.71503 1.39464,0.71594 0.41151,0.001 1.26182,0.48305 1.88956,1.07143 0.62774,0.58837 1.31078,1.06977 1.51786,1.06977 0.20708,0 0.37651,0.23542 0.37651,0.52315 0,0.28774 0.30048,0.68397 0.66773,0.88051 0.36725,0.19655 0.93729,0.92542 1.26676,1.61971 0.32946,0.69429 0.73973,1.26235 0.91171,1.26235 0.17198,0 0.50021,0.56819 0.7294,1.26265 0.2292,0.69446 0.84433,1.53413 1.36698,1.86594 1.29812,0.82413 2.50296,2.19405 3.05938,3.47855 0.25526,0.58929 0.95185,1.59136 1.54797,2.22682 0.59612,0.63547 1.17544,1.39407 1.28738,1.68579 0.11194,0.29172 0.6122,0.63296 1.11168,0.75832 0.49948,0.12536 0.90815,0.47201 0.90815,0.77033 0,0.66286 2.4389,5.72882 2.89318,6.00958 0.1794,0.11088 0.56695,0.66718 0.86121,1.23622 0.49248,0.95235 0.4752,1.14226 -0.21735,2.38807 -0.41381,0.74439 -0.9961,1.62811 -1.29397,1.96381 -0.29787,0.33571 -0.64788,1.13928 -0.77779,1.78572 -0.14552,0.72414 -0.54067,1.31068 -1.02931,1.52789 -0.4362,0.1939 -0.7931,0.47468 -0.7931,0.62397 0,0.49215 -2.57322,3.13062 -3.0532,3.13062 -0.25855,0 -0.56207,0.28979 -0.67448,0.64397 -0.11241,0.35418 -0.7674,1.19793 -1.45553,1.875 -0.68812,0.67707 -1.51669,1.79354 -1.84125,2.48104 -0.70948,1.50285 -2.57692,3.57142 -3.22417,3.57142 -0.25611,0 -0.46566,0.16072 -0.46566,0.35715 0,0.19643 -0.31577,0.35714 -0.70172,0.35714 -0.38594,0 -0.87374,0.32143 -1.08399,0.71429 -0.2821,0.52711 -0.74779,0.71428 -1.7772,0.71428 -0.76721,0 -1.49426,0.16072 -1.61566,0.35714 -0.1214,0.19643 -0.61303,0.35715 -1.0925,0.35715 -0.47948,0 -0.87178,0.16071 -0.87178,0.35714 0,0.19643 -0.28929,0.35714 -0.64286,0.35714 -0.35357,0 -0.79554,0.14864 -0.98214,0.33031 -0.18661,0.18166 -1.54465,0.40717 -3.01786,0.50114 -3.39051,0.21625 -4.86444,0.53319 -6.34386,1.36413 -0.70197,0.39427 -1.88645,0.66157 -2.93164,0.66157 -0.96458,0 -1.84165,0.14218 -1.94905,0.31596 -0.32844,0.53143 -2.297,0.82152 -7.70402,1.13527 -7.70795,0.44726 -9.14345,0.65675 -9.84993,1.4374 -0.33986,0.37554 -0.98914,0.68279 -1.44286,0.68279 -0.45942,0 -0.99432,0.31649 -1.20721,0.71429 -0.21025,0.39286 -0.66591,0.71429 -1.01257,0.71429 -0.34666,0 -0.80962,0.17932 -1.0288,0.3985 -0.4302,0.43021 -1.62725,1.15485 -2.79474,1.69181 -0.40093,0.1844 -0.94293,0.59309 -1.20444,0.90819 -0.26152,0.31511 -0.82752,0.57292 -1.25779,0.57292 -0.43027,0 -1.24423,0.48215 -1.8088,1.07143 -0.56458,0.58929 -1.28582,1.07143 -1.60277,1.07143 -0.7451,0 -2.49798,0.81332 -2.50159,1.16072 -10e-4,0.14732 -0.97105,0.26785 -2.15448,0.26785 -1.91421,0 -2.18604,0.0903 -2.4628,0.81825 -0.1711,0.45004 -0.56891,1.03222 -0.88401,1.29373 -0.31511,0.26152 -0.57293,0.67197 -0.57293,0.91212 0,0.24014 -0.32142,0.72751 -0.71428,1.08305 -0.39286,0.35553 -0.71429,0.82743 -0.71429,1.04867 0,0.22124 -0.96428,1.35648 -2.14285,2.52275 -1.17858,1.16628 -2.14286,2.30768 -2.14286,2.53646 0,0.22877 -0.32143,0.5 -0.71429,0.60274 -0.47559,0.12437 -0.71428,0.48715 -0.71428,1.08561 0,0.5225 -0.44859,1.34741 -1.07143,1.97025 -0.58929,0.58928 -1.07143,1.31997 -1.07143,1.62375 0,0.72549 -1.37722,3.17738 -1.97986,3.52479 -0.5116,0.29493 -1.59157,2.27026 -1.59157,2.91108 0,0.21721 -0.32143,0.59567 -0.71428,0.84101 -0.39286,0.24535 -0.71429,0.74895 -0.71429,1.11913 0,0.37018 -0.23342,0.76262 -0.51871,0.8721 -0.28529,0.10947 -0.83983,0.90396 -1.23232,1.76552 -0.39249,0.86156 -0.96264,1.77315 -1.26701,2.02575 -0.30436,0.2526 -0.55339,0.67159 -0.55339,0.93109 0,0.2595 -0.65326,1.00322 -1.45169,1.6527 -0.82474,0.67088 -1.8292,1.9849 -2.32581,3.04257 -0.49679,1.05807 -1.48888,2.35573 -2.29831,3.0062 -0.7833,0.62948 -1.42419,1.34149 -1.42419,1.58225 0,0.24075 -0.24107,0.53023 -0.53571,0.6433 -0.29465,0.11306 -0.53697,0.41151 -0.5385,0.66321 -0.007,1.14012 -1.82247,1.35049 -11.65449,1.35049 -6.10085,0 -9.81146,-0.13319 -9.94987,-0.35714 z"
       id="path22"
       inkscape:connector-curvature="0"
       transform="scale(0.26458333)" />
    <path
       style="fill:none;stroke:#000000;stroke-width:0.26458332px;stroke-linecap:butt;stroke-linejoin:miter;stroke-opacity:1"
       d="m 75.878718,36.479911 c 39.687502,-0.377979 39.687502,-0.377979 0,0 z"
       id="path856"
       inkscape:connector-curvature="0" />
    <path
       style="fill:#000000;fill-opacity:0;stroke:#a7e6ff;stroke-width:0.16254336;stroke-linecap:butt;stroke-linejoin:miter;stroke-miterlimit:4;stroke-dasharray:1.95052023, 1.95052023;stroke-dashoffset:0;stroke-opacity:1"
       d="m 93.69338,76.588873 14.45253,0.479992 z"
       id="path862-7"
       inkscape:connector-curvature="0" />
    <path
       style="fill:#aaedff;fill-opacity:1;stroke:#57c3f3;stroke-width:0.15123506;stroke-linecap:butt;stroke-linejoin:miter;stroke-miterlimit:4;stroke-dasharray:none;stroke-dashoffset:0;stroke-opacity:1"
       d="m 105.18472,31.577947 c -0.10579,-0.04887 -0.20755,-0.106028 -0.31737,-0.146613 -0.0356,-0.01315 -0.19319,0 -0.23803,0 -0.15869,0 -0.31737,0 -0.47606,0 -0.52896,0 -1.05791,0 -1.58687,0 -0.95212,0 -1.90424,0 -2.856359,0 -0.44961,0 -0.02642,-0.04887 -0.158687,0.07331 -0.02767,0.02559 -0.221563,-0.03043 -0.238033,0 -0.02363,0.04371 0.02369,0.102901 0,0.146612 -0.01181,0.02186 -0.06064,-0.01728 -0.07934,0 -0.0187,0.01728 0.0187,0.05603 0,0.07331 -0.164162,0.151673 0.0064,-0.231778 -0.158686,0.07331 -0.05472,0.101116 0.09609,0.06557 -0.07934,0.146612 -0.02365,0.01093 -0.06064,-0.01728 -0.07935,0 -0.0187,0.01728 0.01183,0.05145 0,0.07331 -0.01672,0.03091 -0.05289,0.04887 -0.07934,0.07331 -0.02645,0.02443 -0.04589,0.05785 -0.07934,0.07331 -0.04731,0.02185 -0.111375,-0.02185 -0.158686,0 -0.330208,0.152541 0.08482,-0.005 -0.07934,0.146612 -0.0187,0.01728 -0.05569,-0.01093 -0.07934,0 -0.03345,0.01545 -0.0529,0.04887 -0.07934,0.07331 -0.02645,0.02443 -0.06262,0.0424 -0.07934,0.07331 -0.01183,0.02186 0.0187,0.05603 0,0.07331 -0.04182,0.03863 -0.116869,0.03467 -0.158687,0.07331 -0.03741,0.03456 0.02365,0.102901 0,0.146613 -0.01673,0.03091 -0.06262,0.0424 -0.07934,0.07331 -0.02365,0.04371 0.0374,0.112056 0,0.146613 -0.0187,0.01728 -0.05569,-0.01093 -0.07934,0 -0.03346,0.01545 -0.0529,0.04887 -0.07934,0.07331 -0.02645,0.02443 -0.06262,0.0424 -0.07934,0.07331 -0.01183,0.02186 0.0187,0.05603 0,0.07331 -0.04182,0.03863 -0.116868,0.03467 -0.158686,0.07331 -0.0187,0.01728 0.01467,0.05297 0,0.07331 -0.0415,0.05751 -0.130904,0.08244 -0.158686,0.146613 -0.02947,0.06806 0.02509,0.150374 0,0.219919 -0.0084,0.02318 -0.05569,-0.01093 -0.07934,0 -0.03346,0.01545 -0.05289,0.04887 -0.07934,0.07331 -0.02645,0.02443 -0.06262,0.0424 -0.07934,0.07331 -0.01183,0.02185 0.0187,0.05603 0,0.07331 -0.0187,0.01728 -0.06064,-0.01728 -0.07934,0 -0.04182,0.03863 -0.04654,0.10115 -0.07934,0.146613 -0.04565,0.06326 -0.176056,0.16266 -0.23803,0.219919 -0.02645,0.02443 -0.06262,0.0424 -0.07934,0.07331 -0.01183,0.02185 0.0187,0.05603 0,0.07331 -0.04182,0.03863 -0.10948,0.043 -0.158687,0.07331 -0.03112,0.01917 -0.04589,0.05785 -0.07934,0.07331 -0.04731,0.02186 -0.121283,-0.03456 -0.158687,0 -0.0187,0.01728 0.01183,0.05145 0,0.07331 -0.165103,0.305083 0.0055,-0.07837 -0.158686,0.07331 -0.0187,0.01728 0.0187,0.05603 0,0.07331 -0.03967,0.03665 -0.198358,-0.03665 -0.23803,0 -0.0187,0.01728 0.02365,0.06238 0,0.07331 -0.04731,0.02186 -0.111375,-0.02185 -0.158686,0 -0.02365,0.01093 0.0187,0.05603 0,0.07331 -0.0187,0.01728 -0.05569,-0.01093 -0.07934,0 -0.03346,0.01545 -0.04589,0.05785 -0.07934,0.07331 -0.04987,0.02304 -0.267504,-0.02304 -0.317373,0 -0.03346,0.01545 -0.04589,0.05785 -0.07934,0.07331 -0.02365,0.01093 -0.05569,-0.01093 -0.07934,0 -0.03346,0.01545 -0.04589,0.05785 -0.07934,0.07331 -0.02365,0.01093 -0.0529,0 -0.07934,0 -0.0529,0 -0.108505,-0.01545 -0.158687,0 -0.03548,0.01093 -0.04589,0.05785 -0.07934,0.07331 -0.02365,0.01093 -0.0529,0 -0.07934,0 -0.132238,0 -0.264478,0 -0.396716,0 -0.0529,0 -0.111377,-0.02186 -0.158687,0 -0.02365,0.01093 0.02365,0.06238 0,0.07331 -0.0487,0.0225 -0.347532,-0.02272 -0.396718,0 -0.03345,0.01545 -0.04589,0.05785 -0.07934,0.07331 -0.02415,0.01116 -0.202299,0 -0.238031,0 -0.211582,0 -0.423164,0 -0.634746,0 -0.0529,0 -0.105792,0 -0.158687,0 -0.02644,0 -0.05426,-0.0077 -0.07934,0 -0.0561,0.01728 -0.102582,0.05603 -0.158686,0.07331 -0.05179,0.01595 -0.381196,0 -0.476061,0 -0.34382,0 -0.687642,0 -1.031463,0 -0.925673,0 -1.851345,0 -2.777018,0 -0.290925,0 -0.581851,0 -0.872776,0 -0.05519,0 -0.368024,-0.01325 -0.396717,0 -0.03346,0.01545 -0.04589,0.05785 -0.07934,0.07331 -0.04731,0.02185 -0.111375,-0.02186 -0.158687,0 -0.03345,0.01545 -0.04589,0.05785 -0.07934,0.07331 -0.04731,0.02185 -0.111375,-0.02185 -0.158687,0 -0.03345,0.01545 -0.04589,0.05785 -0.07934,0.07331 -0.02365,0.01093 -0.05569,-0.01093 -0.07934,0 -0.03346,0.01545 -0.04386,0.06238 -0.07934,0.07331 -0.05018,0.01545 -0.105791,0 -0.158687,0 -0.02644,0 -0.05734,-0.01356 -0.07934,0 -0.06224,0.03834 -0.105791,0.09774 -0.158687,0.146612 -0.02644,0.02443 -0.04589,0.05785 -0.07934,0.07331 -0.04731,0.02186 -0.121284,-0.03456 -0.158686,0 -0.04182,0.03863 -0.04654,0.101151 -0.07934,0.146614 -0.109002,0.151063 -0.156073,-0.0048 -0.23803,0.146612 -0.01183,0.02185 0.01183,0.05145 0,0.07331 -0.01672,0.03091 -0.06262,0.0424 -0.07934,0.07331 -0.01183,0.02186 0.01183,0.05145 0,0.07331 -0.03346,0.06182 -0.125233,0.08479 -0.158687,0.146611 -0.02516,0.0465 0.02577,0.31891 0,0.366532 -0.01673,0.03091 -0.06262,0.0424 -0.07934,0.07331 -0.01183,0.02185 0.0084,0.05012 0,0.07331 -0.0187,0.05183 -0.06064,0.09478 -0.07934,0.146613 -0.0084,0.02318 0.0187,0.05603 0,0.07331 -0.0187,0.01728 -0.06064,-0.01728 -0.07934,0 -0.0187,0.01728 0,0.04887 0,0.07331 0,0.0709 0.01177,0.418096 0,0.439838 -0.01673,0.03091 -0.06262,0.0424 -0.07934,0.07331 -0.01765,0.03262 0.01209,0.259696 0,0.293225 -0.01183,0.03278 -0.06262,0.0424 -0.07934,0.07331 -0.01183,0.02185 0,0.04887 0,0.07331 0,0.04887 0.01673,0.10025 0,0.146613 -0.01183,0.03278 -0.06262,0.0424 -0.07934,0.07331 -0.01025,0.01895 0,0.387878 0,0.439838 0,0.317661 0,0.635322 0,0.952983 0,0.171048 0,0.342096 0,0.513144 0,0.03301 0.01208,0.197609 0,0.219919 -0.01673,0.03091 -0.06262,0.0424 -0.07934,0.07331 -0.03174,0.05864 0.03173,0.161275 0,0.21992 -0.01673,0.03091 -0.06262,0.0424 -0.07934,0.07331 -0.02629,0.04858 0.02216,0.231785 0,0.293226 -0.0187,0.05183 -0.065,0.0936 -0.07934,0.146612 -0.0097,0.03572 0.02098,0.254463 0,0.293225 -0.181562,0.335495 0.03289,-0.311069 -0.158687,0.21992 -0.0084,0.02318 0.0187,0.05603 0,0.07331 -0.0187,0.01728 -0.06064,-0.01728 -0.07934,0 -0.03741,0.03456 0.02365,0.102901 0,0.146612 -0.03904,0.07214 -0.278336,0.22109 -0.317374,0.293226 -0.02365,0.04371 0.03741,0.112055 0,0.146612 -0.0187,0.01728 -0.06064,-0.01728 -0.07934,0 -0.0187,0.01728 0.0187,0.05603 0,0.07331 -0.0187,0.01728 -0.06064,-0.01728 -0.07934,0 -0.0187,0.01728 0.01183,0.05145 0,0.07331 -0.04761,0.08797 -0.190425,0.131951 -0.238031,0.219919 -0.01183,0.02186 0.01183,0.05145 0,0.07331 -0.165103,0.305083 0.0055,-0.07837 -0.158686,0.07331 -0.0187,0.01728 0.0187,0.05603 0,0.07331 -0.0187,0.01728 -0.06064,-0.01728 -0.07934,0 -0.0187,0.01728 0.0187,0.05603 0,0.07331 -0.0187,0.01728 -0.06064,-0.01728 -0.07934,0 -0.164164,0.151674 0.250865,-0.0059 -0.07934,0.146613 -0.02365,0.01093 -0.05569,-0.01093 -0.07934,0 -0.03345,0.01545 -0.04589,0.05785 -0.07934,0.07331 -0.02365,0.01093 -0.05569,-0.01093 -0.07934,0 -0.330209,0.152542 0.08482,-0.005 -0.07934,0.146613 -0.0187,0.01728 -0.05426,-0.0077 -0.07934,0 -0.0561,0.01728 -0.116869,0.03467 -0.158687,0.07331 -0.0187,0.01728 0.0187,0.05603 0,0.07331 -0.0187,0.01728 -0.05569,-0.01093 -0.07934,0 -0.03346,0.01545 -0.04589,0.05785 -0.07934,0.07331 -0.02365,0.01093 -0.06064,-0.01728 -0.07934,0 -0.0187,0.01728 0.0187,0.05603 0,0.07331 -0.0187,0.01728 -0.05569,-0.01093 -0.07934,0 -0.03345,0.01545 -0.04589,0.05785 -0.07934,0.07331 -0.02365,0.01093 -0.05569,-0.01093 -0.07934,0 -0.03346,0.01545 -0.04589,0.05785 -0.07934,0.07331 -0.04731,0.02185 -0.121284,-0.03456 -0.158687,0 -0.0187,0.01728 0.0187,0.05603 0,0.07331 -0.0187,0.01728 -0.05569,-0.01093 -0.07934,0 -0.03346,0.01545 -0.04822,0.05414 -0.07934,0.07331 -0.01478,0.0091 -0.312289,0.141915 -0.317373,0.146613 -0.0187,0.01728 0.02365,0.06238 0,0.07331 -0.04731,0.02185 -0.107371,-0.01185 -0.158687,0 -0.534436,0.123443 -0.0012,0.0012 -0.158686,0.146613 -0.0374,0.03456 -0.121284,-0.03456 -0.158687,0 -0.0187,0.01728 0.0187,0.05603 0,0.07331 -0.0187,0.01728 -0.05369,-0.0059 -0.07934,0 -0.08114,0.01874 -0.171122,0.02695 -0.238031,0.07331 -0.04731,0.03278 -0.03014,0.116305 -0.07934,0.146613 -0.04401,0.02711 -0.111376,-0.02185 -0.158687,0 -0.06691,0.03091 -0.09644,0.108276 -0.158686,0.146613 -0.022,0.01355 -0.05569,-0.01093 -0.07934,0 -0.06691,0.03091 -0.08772,0.124757 -0.158687,0.146613 -0.05018,0.01545 -0.108506,-0.01545 -0.158687,0 -0.03548,0.01093 -0.0529,0.04887 -0.07934,0.07331 -0.0529,0.04887 -0.09644,0.108275 -0.158687,0.146612 -0.022,0.01356 -0.05425,-0.0077 -0.07934,0 -0.0561,0.01728 -0.102583,0.05603 -0.158687,0.07331 -0.02509,0.0077 -0.05819,-0.01466 -0.07934,0 -0.08977,0.0622 -0.150409,0.155154 -0.23803,0.219919 -0.04618,0.03413 -0.116869,0.03467 -0.158686,0.07331 -0.04182,0.03864 -0.03014,0.116303 -0.07934,0.146612 -0.04401,0.02711 -0.111376,-0.02185 -0.158687,0 -0.02365,0.01093 0.022,0.05975 0,0.07331 -0.06959,0.04286 -0.171122,0.02694 -0.23803,0.07331 -0.04731,0.03278 -0.03014,0.116304 -0.07934,0.146612 -0.04401,0.02711 -0.108505,-0.01545 -0.158686,0 -0.03548,0.01093 -0.04822,0.05414 -0.07934,0.07331 -0.07248,0.04464 -0.19255,0.06257 -0.23803,0.146614 -0.03173,0.05865 0.03174,0.161274 0,0.219918 -0.01672,0.03091 -0.06262,0.0424 -0.07934,0.07331 -0.01183,0.02185 0.0187,0.05603 0,0.07331 -0.0187,0.01728 -0.06064,-0.01728 -0.07934,0 -0.0187,0.01728 0.0187,0.05603 0,0.07331 -0.0187,0.01728 -0.06752,-0.02185 -0.07934,0 -0.02365,0.04371 0,0.09774 0,0.146614 0,0.02443 0.0187,0.05603 0,0.07331 -0.0187,0.01728 -0.06064,-0.01728 -0.07934,0 -0.04182,0.03863 -0.06064,0.09477 -0.07934,0.146611 -0.0084,0.02318 0.0187,0.05603 0,0.07331 -0.0187,0.01728 -0.0529,0 -0.07934,0 0,0.04887 0.01672,0.100251 0,0.146615 -0.01183,0.03278 -0.0529,0.04887 -0.07934,0.07331 -0.02644,0.02443 -0.05289,0.04887 -0.07934,0.07331 -0.263148,0.243125 0.0374,-0.06911 -0.07934,0.146612 -0.04761,0.08797 -0.190424,0.131952 -0.23803,0.219919 -0.02365,0.04371 0.0374,0.112055 0,0.146613 -0.0187,0.01728 -0.06064,-0.01728 -0.07934,0 -0.0187,0.01728 0.01183,0.05145 0,0.07331 -0.01673,0.03091 -0.06262,0.0424 -0.07934,0.0733 -0.01183,0.02185 0.01183,0.05145 0,0.07331 -0.01672,0.03091 -0.06752,0.04052 -0.07934,0.07331 -1.2e-4,2.9e-4 7.6e-5,0.219848 0,0.219921 -0.0187,0.01728 -0.06752,-0.02186 -0.07934,0 -0.02365,0.04371 0.01283,0.0992 0,0.146612 -0.01434,0.05301 -0.06064,0.09478 -0.07934,0.146613 -0.0084,0.02318 0.01183,0.05145 0,0.0733 -0.01672,0.03091 -0.06262,0.0424 -0.07934,0.07331 -0.02494,0.04607 0.02494,0.247152 0,0.293227 -0.01673,0.03091 -0.06262,0.0424 -0.07934,0.07331 -0.03548,0.06557 0.03548,0.154353 0,0.219919 -0.01183,0.02186 -0.06064,-0.01728 -0.07934,0 -0.0187,0.01728 0.01183,0.05145 0,0.07331 -0.01673,0.03091 -0.06262,0.0424 -0.07934,0.07331 -0.02503,0.04624 0.02503,0.320285 0,0.366531 -0.01673,0.03091 -0.06262,0.0424 -0.07934,0.07331 -0.01183,0.02186 0.01183,0.05145 0,0.07331 -0.01673,0.03091 -0.06262,0.0424 -0.07934,0.07331 -0.01183,0.02185 0.01183,0.05145 0,0.0733 -0.01673,0.03091 -0.06262,0.0424 -0.07934,0.07331 -0.01183,0.02186 0.02644,0.07331 0,0.07331 -0.02644,0 0,-0.09774 0,-0.07331 0,0.09774 0,0.195483 0,0.293225 0,0.244354 0,0.488708 0,0.733063 0,0.05099 0.01435,0.340023 0,0.366533 -0.01673,0.03091 -0.06262,0.0424 -0.07934,0.07331 -0.01208,0.02231 0,0.186905 0,0.219918 0,0.195485 0,0.390969 0,0.586451 0,0.366533 0,0.733066 0,1.099596 0,0.04887 0,0.09774 0,0.146612 0,0.02444 -0.0187,0.05603 0,0.07331 0.0187,0.01728 0.06064,-0.01728 0.07934,0 0.0187,0.01728 -0.01183,0.05145 0,0.07331 0.01837,0.03394 0.270709,0.25011 0.317374,0.293225 0.04177,0.03859 0.195654,0.200344 0.23803,0.21992 0.02365,0.01093 0.06064,-0.01728 0.07934,0 0.0187,0.01728 -0.0187,0.05603 0,0.07331 0.0187,0.01728 0.06064,-0.01728 0.07934,0 0.0187,0.01728 -0.0187,0.05603 0,0.07331 0.06743,0.0623 0.161743,0.09375 0.23803,0.146612 0.171175,0.118613 -0.01399,0.09746 0.317373,0.219918 0.04911,0.01815 0.105791,0 0.158687,0 0.02644,0 0.06064,-0.01728 0.07934,0 0.0187,0.01728 -0.0187,0.05603 0,0.07331 0.0174,0.01607 0.210744,-0.01681 0.23803,0 0.06224,0.03834 0.09644,0.108275 0.158687,0.146612 0.03257,0.02006 0.274108,-0.01999 0.317374,0 0.06691,0.03091 0.09178,0.115704 0.158686,0.146613 0.04918,0.02272 0.34802,-0.0225 0.396717,0 0.02365,0.01093 0,0.04887 0,0.07331 0.0529,0.02443 0.102582,0.05603 0.158687,0.0733 0.02509,0.0077 0.0529,0 0.07934,0 0.132239,0 0.264478,0 0.396717,0 0.02644,0 0.05368,-0.0059 0.07934,0 0.08114,0.01874 0.156019,0.05815 0.23803,0.07331 0.129671,0.02396 0.266278,-0.02008 0.396717,0 0.0825,0.0127 0.155533,0.0606 0.23803,0.07331 0.07826,0.01205 0.160228,-0.01438 0.23803,0 0.05799,0.01071 0.100696,0.06259 0.158687,0.0733 0.155605,0.02876 0.319533,-0.0241 0.47606,0 0.0825,0.0127 0.155533,0.0606 0.23803,0.07331 0.07826,0.01205 0.161056,-0.01778 0.23803,0 0.03629,0.0084 0.04306,0.06492 0.07934,0.07331 0.264478,0.06109 0.176319,-0.04073 0.396717,0 0.08201,0.01516 0.155533,0.0606 0.23803,0.0733 0.07826,0.01205 0.158687,0 0.23803,0 0.185135,0 0.370269,0 0.555404,0 0.47606,0 0.95212,0 1.428181,0 0.661194,0 1.322388,0 1.983583,0 0.23803,0 0.47606,0 0.71409,0 0.04433,0 0.349895,-0.01443 0.396717,0 0.0561,0.01728 0.102583,0.05603 0.158687,0.07331 0.04841,0.0149 0.414781,0 0.47606,0 0.02644,0 0.05569,-0.01093 0.07934,0 0.03345,0.01545 0.04589,0.05785 0.07934,0.07331 0.06347,0.02932 0.174555,-0.02932 0.23803,0 0.03346,0.01545 0.04589,0.05785 0.07934,0.0733 0.06348,0.02932 0.174555,-0.02932 0.23803,0 0.03346,0.01545 0.04589,0.05785 0.07934,0.07331 0.02366,0.01093 0.06064,-0.01728 0.07934,0 0.0187,0.01728 -0.0187,0.05603 0,0.0733 0.02171,0.02006 0.274331,-0.01988 0.317374,0 0.03346,0.01545 0.04589,0.05785 0.07934,0.07331 0.02366,0.01093 0.06064,-0.01728 0.07934,0 0.309656,0.286094 -0.01836,0.03937 0.07934,0.219919 0.01673,0.03091 0.0586,0.04455 0.07934,0.0733 0.192141,0.266283 -0.02323,0.05184 0.158686,0.219918 0.02644,0.02444 0.0529,0.04887 0.07934,0.07331 0.02644,0.02443 0.06262,0.0424 0.07934,0.07331 0.01183,0.02186 -0.0187,0.05603 0,0.07331 0.164164,0.151673 -0.0064,-0.231777 0.158686,0.07331 0.01183,0.02185 -0.0187,0.05603 0,0.0733 0.0187,0.01728 0.06064,-0.01728 0.07934,0 0.0187,0.01728 -0.01183,0.05146 0,0.07331 0.01673,0.03091 0.0529,0.04887 0.07934,0.07331 0.02644,0.02444 0.0529,0.04887 0.07934,0.07331 0.0529,0.04887 0.105791,0.09774 0.158686,0.146615 0.02644,0.02443 0.04589,0.05785 0.07934,0.0733 0.02365,0.01093 0.05569,-0.01093 0.07934,0 0.330208,0.152543 -0.08482,-0.005 0.07934,0.146613 0.08364,0.07727 0.233739,0.06934 0.317373,0.146612 0.0187,0.01728 -0.0187,0.05603 0,0.07331 0.0187,0.01728 0.05569,-0.01093 0.07934,0 0.03346,0.01545 0.04386,0.06238 0.07934,0.07331 0.05041,0.01552 0.362598,-0.02102 0.396717,0 0.04921,0.03031 0.03014,0.116305 0.07934,0.146613 0.04401,0.02711 0.105792,0 0.158689,0 0.132238,0 0.264476,0 0.396716,0 0.0529,0 0.107371,-0.01186 0.158686,0 0.114746,0.02651 0.201392,0.125181 0.317374,0.146612 0.0778,0.01438 0.160228,-0.01438 0.238031,0 0.319286,0.059 0.03646,0.0535 0.238028,0.146613 0.02366,0.01093 0.06064,-0.01728 0.07935,0 0.0187,0.01728 -0.0187,0.05603 0,0.07331 0.04182,0.03863 0.116868,0.03467 0.158685,0.0733 0.0187,0.01728 -0.0187,0.05603 0,0.07331 0.0187,0.01728 0.06064,-0.01728 0.07934,0 0.0187,0.01728 -0.0187,0.05603 0,0.07331 0.0187,0.01728 0.06064,-0.01728 0.07935,0 0.0187,0.01728 -0.0187,0.05603 0,0.07331 0.0187,0.01728 0.06064,-0.01728 0.07934,0 0.309656,0.286094 -0.01836,0.03937 0.07934,0.219918 0.01673,0.03091 0.0529,0.04887 0.07934,0.07331 0.06197,0.05726 0.192387,0.156663 0.23803,0.219918 0.0328,0.04547 0.06064,0.09478 0.07934,0.146614 0.0084,0.02318 -0.0187,0.05603 0,0.07331 0.0187,0.01728 0.05569,-0.01093 0.07934,0 0.06691,0.03091 0.09178,0.115705 0.158687,0.146612 0.02365,0.01093 0.05569,-0.01093 0.07934,0 0.330209,0.152541 -0.08482,-0.005 0.07934,0.146614 0.0187,0.01728 0.05569,-0.01093 0.07934,0 0.03346,0.01545 0.05289,0.04887 0.07934,0.0733 0.02645,0.02443 0.06752,0.04052 0.07934,0.07331 0.01673,0.04636 -0.03173,0.107516 0,0.146613 0.05721,0.07048 0.170602,0.08431 0.23803,0.146612 0.19271,0.178046 -0.02359,0.107644 0.158687,0.219918 0.04921,0.03031 0.111375,0.04052 0.158686,0.07331 0.05985,0.04147 0.105792,0.09774 0.158688,0.146612 0.02644,0.02443 0.04589,0.05785 0.07934,0.07331 0.02365,0.01093 0.05569,-0.01093 0.07934,0 0.06691,0.03091 0.09178,0.115704 0.158687,0.146611 0.02365,0.01093 0.05569,-0.01093 0.07934,0 0.03345,0.01545 0.0529,0.04887 0.07934,0.07331 0.0529,0.04887 0.09644,0.108277 0.158688,0.146614 0.01963,0.01209 0.27664,0 0.317372,0 0.22003,0 -0.126654,-0.01093 0.23803,0.07331 0.102634,0.0237 0.217012,-0.03091 0.317373,0 0.03548,0.01093 0.04386,0.06238 0.07934,0.0733 0.05018,0.01545 0.105792,0 0.158687,0 0.02644,0 0.05569,-0.01093 0.07934,0 0.03345,0.01545 0.04589,0.05785 0.07934,0.07331 0.02365,0.01093 0.0529,0 0.07934,0 0.02645,0 0.0529,0 0.07934,0 0.185134,0 0.370268,0 0.555402,0 0.528957,0 1.057912,0 1.586865,0 0.211582,0 0.423161,0 0.634751,0 0.0415,0 0.29651,-0.0096 0.31737,0 0.0335,0.01545 0.0459,0.05785 0.0793,0.0733 0.0236,0.01093 0.0529,0 0.0793,0 0.0264,0 0.0529,0 0.0794,0 0.18513,0 0.37027,0 0.5554,0 0.0264,0 0.0543,-0.0077 0.0793,0 0.0561,0.01728 0.1007,0.06259 0.15869,0.07331 0.0778,0.01438 0.15977,-0.01205 0.23803,0 0.0825,0.0127 0.15602,0.05815 0.23803,0.07331 0.0519,0.0096 0.10737,-0.01186 0.15869,0 0.0573,0.01325 0.1007,0.06259 0.15869,0.0733 0.0778,0.01438 0.15868,0 0.23803,0 0.18513,0 0.37026,0 0.5554,0 0.18513,0 0.37027,0 0.5554,0 0.10579,0 0.21364,0.01917 0.31738,0 0.082,-0.01516 0.15602,-0.05815 0.23803,-0.0733 0.0519,-0.0096 0.10681,0.0096 0.15868,0 0.082,-0.01516 0.15602,-0.05815 0.23803,-0.07331 0.0519,-0.0096 0.10958,0.01815 0.15869,0 0.0885,-0.03272 0.15274,-0.10721 0.23803,-0.146611 0.0237,-0.01093 0.0529,0 0.0794,0 0.0529,0 0.1085,0.01545 0.15868,0 0.0355,-0.01093 0.0459,-0.05785 0.0793,-0.07331 0.0236,-0.01093 0.0557,0.01093 0.0794,0 0.0334,-0.01545 0.0482,-0.05414 0.0793,-0.0733 0.0492,-0.03031 0.10949,-0.043 0.15869,-0.07331 0.0311,-0.01917 0.0482,-0.05414 0.0794,-0.07331 0.0715,-0.145535 0.21984,-0.02825 0.31737,-0.07331 0.0952,-0.04398 0.14282,-0.175935 0.23803,-0.219918 0.0748,-0.03456 0.17112,-0.02694 0.23803,-0.07331 0.0473,-0.03278 0.0375,-0.107976 0.0794,-0.146612 0.0187,-0.01728 0.0543,0.0077 0.0793,0 0.0561,-0.01728 0.10579,-0.04887 0.15869,-0.07331 0.0529,-0.02443 0.11687,-0.03467 0.15868,-0.07331 0.0187,-0.01728 -0.0187,-0.05603 0,-0.07331 0.0418,-0.03863 0.10949,-0.043 0.15869,-0.0733 0.0311,-0.01917 0.0482,-0.05414 0.0794,-0.07331 0.20274,-0.124877 0.14578,-0.0085 0.31737,-0.21992 0.0324,-0.03992 0.0778,-0.195006 0.15869,-0.21992 0.0502,-0.01545 0.11137,0.02185 0.15869,0 0.0236,-0.01093 -0.0147,-0.05298 0,-0.07331 0.0529,-0.04887 0.10578,-0.09774 0.15868,-0.146612 0.0265,0 0.0606,0.01728 0.0793,0 0.0418,-0.03863 0.0302,-0.116306 0.0793,-0.146613 0.044,-0.02711 0.10851,0.01545 0.15869,0 0.0537,-0.01654 0.17742,-0.19192 0.23803,-0.21992 0.0236,-0.01093 0.0606,0.01728 0.0793,0 0.0674,-0.0623 0.0913,-0.15762 0.15869,-0.219918 0.0418,-0.03863 0.11687,-0.03467 0.15868,-0.07331 0.0187,-0.01728 -0.0187,-0.05603 0,-0.0733 0.0187,-0.01728 0.0557,0.01093 0.0794,0 0.0334,-0.01545 0.0459,-0.05785 0.0793,-0.07331 0.0236,-0.01093 0.0606,0.01728 0.0793,0 0.16417,-0.151675 -0.25086,0.0059 0.0793,-0.146614 0.0236,-0.01093 0.0606,0.01728 0.0794,0 0.0187,-0.01728 -0.0187,-0.05603 0,-0.0733 0.0187,-0.01728 0.0557,0.01093 0.0793,0 0.12152,-0.05614 0.062,-0.130634 0.15869,-0.21992 0.0187,-0.01728 0.0557,0.01093 0.0793,0 0.0334,-0.01545 0.0529,-0.04887 0.0794,-0.0733 0.0417,-0.0386 0.19565,-0.200344 0.23803,-0.21992 0.0237,-0.01093 0.0557,0.01093 0.0794,0 0.0334,-0.01545 0.0459,-0.05785 0.0793,-0.07331 0.0236,-0.01093 0.0606,0.01728 0.0793,0 0.0418,-0.03863 0.0375,-0.107975 0.0793,-0.146611 0.0187,-0.01728 0.0543,0.0077 0.0794,0 0.0561,-0.01728 0.10948,-0.043 0.15869,-0.07331 0.0622,-0.03834 0.0918,-0.115704 0.15868,-0.146613 0.0236,-0.01093 0.0557,0.01093 0.0793,0 0.0669,-0.03091 0.0918,-0.115703 0.15869,-0.146612 0.0236,-0.01093 0.0557,0.01093 0.0794,0 0.0669,-0.03091 0.0918,-0.115703 0.15868,-0.146614 0.0237,-0.01093 0.0573,0.01355 0.0793,0 0.0622,-0.03834 0.0965,-0.108275 0.15869,-0.146612 0.022,-0.01355 0.0606,0.01728 0.0793,0 0.16416,-0.151673 -0.25087,0.0059 0.0793,-0.146612 0.0236,-0.01093 0.0606,0.01728 0.0793,0 0.0187,-0.01728 -0.0187,-0.05603 0,-0.07331 0.0187,-0.01728 0.0557,0.01093 0.0794,0 0.0334,-0.01545 0.0529,-0.04887 0.0793,-0.07331 0.0265,-0.02443 0.0626,-0.0424 0.0793,-0.07331 0.0977,-0.180549 -0.23032,0.06618 0.0793,-0.219918 0.0187,-0.01728 0.0557,0.01093 0.0794,0 0.0367,-0.01697 0.2707,-0.250111 0.31737,-0.293224 0.0265,-0.02443 0.0459,-0.05785 0.0794,-0.07331 0.10944,-0.05056 0.071,0.08878 0.15868,-0.0733 0.0118,-0.02185 -0.0187,-0.05603 0,-0.07331 0.0966,-0.08928 0.17727,-0.03434 0.23803,-0.146611 0.0118,-0.02185 -0.0236,-0.06238 0,-0.07331 0.0473,-0.02185 0.11138,0.02186 0.15869,0 0.0237,-0.01093 -0.0118,-0.05145 0,-0.0733 0.0167,-0.03091 0.0482,-0.05414 0.0794,-0.07331 0.14648,-0.09022 0.32958,-0.129698 0.47606,-0.219921 0.0311,-0.01917 0.0482,-0.05414 0.0793,-0.07331 0.0492,-0.03031 0.10948,-0.043 0.15868,-0.0733 0.0311,-0.01917 0.0459,-0.05785 0.0794,-0.07331 0.0473,-0.02186 0.12129,0.03456 0.15869,0 0.0187,-0.01728 -0.0187,-0.05603 0,-0.07331 0.0187,-0.01728 0.0606,0.01728 0.0793,0 0.0187,-0.01728 -0.0187,-0.05603 0,-0.07331 0.0187,-0.01728 0.0543,0.0077 0.0794,0 0.0561,-0.01728 0.10258,-0.05603 0.15868,-0.07331 0.0251,-0.0077 0.0606,0.01728 0.0793,0 0.0418,-0.03863 0.0375,-0.107976 0.0793,-0.146612 0.0187,-0.01728 0.0543,0.0077 0.0794,0 0.0561,-0.01728 0.10258,-0.05603 0.15869,-0.07331 0.0251,-0.0077 0.0543,0.0077 0.0793,0 0.57472,-0.176996 -0.12509,0.02114 0.23803,-0.146612 0.19542,-0.09027 -0.0716,0.212787 0.23803,-0.07331 0.0187,-0.01728 -0.0236,-0.06238 0,-0.0733 0.0473,-0.02186 0.1085,0.01545 0.15869,0 0.071,-0.02186 0.0918,-0.115705 0.15868,-0.146613 0.0236,-0.01093 0.0557,0.01093 0.0794,0 0.0334,-0.01545 0.0459,-0.05785 0.0793,-0.07331 0.0635,-0.02932 0.17456,0.02932 0.23803,0 0.0335,-0.01545 0.0459,-0.05785 0.0794,-0.0733 0.0236,-0.01093 0.0557,0.01093 0.0793,0 0.0669,-0.03091 0.0918,-0.115705 0.15868,-0.146613 0.0236,-0.01093 0.0557,0.01093 0.0794,0 0.0669,-0.03091 0.0918,-0.115703 0.15869,-0.146612 0.0236,-0.01093 0.0606,0.01728 0.0793,0 0.19271,-0.178047 -0.0236,-0.107647 0.15869,-0.219921 0.0725,-0.04464 0.19255,-0.06257 0.23803,-0.146612 0.0118,-0.02185 -0.0187,-0.05603 0,-0.0733 0.0418,-0.03863 0.11687,-0.03467 0.15869,-0.07331 0.0374,-0.03456 -0.0374,-0.112056 0,-0.146613 0.0187,-0.01728 0.0606,0.01728 0.0793,0 0.16416,-0.151674 -0.25087,0.0059 0.0794,-0.146613 0.0236,-0.01093 0.0606,0.01728 0.0793,0 0.0187,-0.01728 -0.0118,-0.05145 0,-0.07331 0.0167,-0.03091 0.0626,-0.0424 0.0793,-0.07331 0.0118,-0.02185 -0.0187,-0.05603 0,-0.07331 0.0187,-0.01728 0.0606,0.01728 0.0793,0 0.0187,-0.01728 -0.0118,-0.05145 0,-0.07331 0.0334,-0.06182 0.12523,-0.0848 0.15868,-0.146613 0.0118,-0.02185 -0.0118,-0.05145 0,-0.07331 0.0476,-0.08797 0.19043,-0.131952 0.23803,-0.21992 0.0118,-0.02186 0,-0.04887 0,-0.07331 0,-0.171917 -0.0187,0.03456 0.0794,-0.146612 0.0118,-0.02186 -0.0118,-0.05145 0,-0.07331 0.0167,-0.03091 0.0626,-0.0424 0.0793,-0.07331 0.0318,-0.05865 -0.0318,-0.161274 0,-0.21992 0.0167,-0.03091 0.0626,-0.0424 0.0793,-0.07331 0.009,-0.01643 0,-0.275805 0,-0.293224 0,-0.268791 0,-0.537581 0,-0.80637 0,-0.122178 0,-0.244356 0,-0.366533 0,-0.02443 0.0187,-0.05603 0,-0.07331 -0.0187,-0.01728 -0.0557,0.01093 -0.0793,0 -0.3302,-0.152541 0.0848,0.005 -0.0793,-0.146612 -0.0374,-0.03456 -0.11138,0.02185 -0.15869,0 -0.0335,-0.01545 -0.0459,-0.05785 -0.0793,-0.07331 -0.0458,-0.02115 -0.36406,0.02012 -0.39672,0 -0.0622,-0.03834 -0.0965,-0.108274 -0.15868,-0.146612 -0.044,-0.02711 -0.11138,0.02185 -0.15869,0 -0.0334,-0.01545 -0.0459,-0.05785 -0.0793,-0.07331 -0.0237,-0.01093 -0.0557,0.01093 -0.0794,0 -0.0669,-0.03091 -0.0918,-0.115704 -0.15869,-0.146612 -0.0236,-0.01093 -0.0606,0.01728 -0.0793,0 -0.002,-0.0024 0,-0.202142 0,-0.219921 0,-0.02443 -0.0264,-0.07331 0,-0.07331 0.0264,0 0.0187,0.09059 0,0.07331 -0.17943,-0.248671 -0.0913,-0.15762 -0.23803,-0.293225 -0.26315,-0.243125 0.0374,0.06911 -0.0793,-0.146612 -0.0167,-0.03091 -0.0626,-0.0424 -0.0793,-0.0733 -0.0118,-0.02186 0.0236,-0.06238 0,-0.07331 -0.0473,-0.02185 -0.10851,0.01545 -0.15868,0 -0.0355,-0.01093 -0.0459,-0.05785 -0.0794,-0.07331 -0.0236,-0.01093 -0.0606,0.01728 -0.0793,0 -0.10579,-0.09774 0.16832,-0.07034 -0.0793,-0.146611 -0.0502,-0.01545 -0.11138,0.02185 -0.15869,0 -0.0236,-0.01093 0.0187,-0.05603 0,-0.07331 -0.0187,-0.01728 -0.0606,0.01728 -0.0793,0 -0.0187,-0.01728 0.0236,-0.06238 0,-0.07331 -0.0473,-0.02185 -0.10851,0.01545 -0.15869,0 -0.0355,-0.01093 -0.0482,-0.05414 -0.0794,-0.07331 -0.40083,-0.246886 -0.002,-6.03e-4 -0.23802,-0.0733 -0.0561,-0.01728 -0.10259,-0.05603 -0.15869,-0.07331 -0.0502,-0.01545 -0.11138,0.02185 -0.15869,0 -0.0335,-0.01545 -0.0459,-0.05785 -0.0794,-0.07331 -0.071,-0.03278 -0.16706,0.03279 -0.23803,0 -0.0236,-0.01093 0.0187,-0.05603 0,-0.07331 -0.0374,-0.03456 -0.1085,0.01545 -0.15868,0 -0.0561,-0.01728 -0.10132,-0.06005 -0.15869,-0.07331 -0.077,-0.01778 -0.15869,0 -0.23803,0 -0.15868,0 -0.31737,0 -0.47606,0 -0.0357,0 -0.21388,0.01116 -0.23803,0 -0.0334,-0.01545 -0.0459,-0.05785 -0.0793,-0.07331 -0.0473,-0.02186 -0.10851,0.01545 -0.15869,0 -0.0561,-0.01728 -0.10258,-0.05603 -0.15869,-0.0733 -0.0498,-0.01534 -0.2535,0 -0.31737,0 -0.29092,0 -0.58185,0 -0.87278,0 -0.13224,0 -0.26447,0 -0.39672,0 -0.0529,0 -0.10579,0 -0.15868,0 -0.0264,0 -0.0543,0.0077 -0.0793,0 -0.0561,-0.01728 -0.10259,-0.05603 -0.15869,-0.07331 -0.0524,-0.01615 -0.47028,0 -0.5554,0 -0.0265,0 -0.0529,0 -0.0794,0 -0.0264,0 -0.0557,0.01093 -0.0793,0 -0.0335,-0.01545 -0.0459,-0.05785 -0.0793,-0.07331 -0.0748,-0.03456 -0.16322,-0.03875 -0.23803,-0.07331 -0.20158,-0.09312 0.0813,-0.08761 -0.23803,-0.146613 -0.0778,-0.01438 -0.16706,0.03278 -0.23803,0 -0.0529,-0.02444 -0.0375,-0.107977 -0.0793,-0.146613 -0.0187,-0.01728 -0.0606,0.01728 -0.0794,0 -0.0187,-0.01728 0.0187,-0.05603 0,-0.07331 -0.0187,-0.01728 -0.0606,0.01728 -0.0793,0 -0.0187,-0.01728 0.0187,-0.05603 0,-0.07331 -0.0418,-0.03863 -0.11686,-0.03467 -0.15868,-0.07331 -0.0187,-0.01728 0.0118,-0.05145 0,-0.07331 -0.1651,-0.305085 0.005,0.07836 -0.15869,-0.07331 -0.0187,-0.01728 0.0187,-0.05603 0,-0.07331 -0.0187,-0.01728 -0.0606,0.01728 -0.0793,0 -0.0187,-0.01728 0.008,-0.05013 0,-0.0733 -0.0187,-0.05183 -0.0466,-0.10115 -0.0793,-0.146612 -0.0207,-0.02876 -0.0586,-0.04455 -0.0794,-0.07331 -0.0328,-0.04546 -0.0465,-0.101151 -0.0793,-0.146612 -0.12104,-0.167748 -0.0628,0.04584 -0.15868,-0.219921 -0.0222,-0.06144 0.0263,-0.244642 0,-0.293225 -0.0167,-0.03091 -0.0626,-0.0424 -0.0794,-0.07331 -0.0236,-0.04371 0.0236,-0.102901 0,-0.146612 -0.0167,-0.03091 -0.0626,-0.0424 -0.0793,-0.07331 -0.0157,-0.02906 0.0162,-0.204932 0,-0.219918 -0.0187,-0.01728 -0.0606,0.01728 -0.0794,0 -0.0187,-0.01728 0.008,-0.05013 0,-0.07331 -0.0187,-0.05183 -0.065,-0.09361 -0.0793,-0.146613 -0.0165,-0.0608 0.0259,-0.318571 0,-0.366531 -0.0118,-0.02186 -0.071,0.02318 -0.0794,0 -0.0251,-0.06955 0.0294,-0.151857 0,-0.219919 -0.0278,-0.06417 -0.12523,-0.0848 -0.15868,-0.146613 -0.0793,-0.146613 0.0397,-0.10996 0,-0.219919 -0.0187,-0.05183 -0.0606,-0.09478 -0.0793,-0.146613 -0.0175,-0.04845 0,-0.434499 0,-0.513144 0,-0.04887 0.0236,-0.102901 0,-0.146613 -0.0335,-0.06182 -0.1172,-0.08911 -0.15869,-0.146613 -0.0147,-0.02033 0,-0.04887 0,-0.07331 0,-0.02443 0,-0.04887 0,-0.07331 0,-0.122177 0,-0.244354 0,-0.366531 0,-0.171048 0,-0.342096 0,-0.513145 0,-0.08406 -0.0205,-0.217288 0,-0.293225 0.0144,-0.05301 0.0606,-0.09478 0.0793,-0.146613 0.0397,-0.109959 -0.0793,-0.07331 0,-0.219918 0.0335,-0.06182 0.1172,-0.08911 0.15869,-0.146613 0.0147,-0.02033 0,-0.04887 0,-0.07331 0,-0.04887 -0.0128,-0.0992 0,-0.146612 0.0143,-0.05301 0.0606,-0.09478 0.0793,-0.146613 0.0167,-0.04636 -0.0167,-0.10025 0,-0.146612 0.19158,-0.530989 -0.0229,0.115575 0.15869,-0.21992 0.0118,-0.02185 -0.0118,-0.05145 0,-0.07331 0.0167,-0.03091 0.0675,-0.04052 0.0793,-0.07331 1.2e-4,-3.34e-4 -7e-5,-0.219849 0,-0.21992 0.0187,-0.01728 0.0606,0.01728 0.0793,0 0.0187,-0.01728 -0.008,-0.05012 0,-0.07331 0.0187,-0.05183 0.0606,-0.09478 0.0793,-0.146613 0.0167,-0.04636 -0.0236,-0.102901 0,-0.146612 0.0167,-0.03091 0.0675,-0.04052 0.0794,-0.07331 0.0281,-0.0779 -0.0281,-0.21533 0,-0.293226 0.0374,-0.103671 0.12128,-0.189554 0.15869,-0.293225 0.0167,-0.04636 -0.0236,-0.102901 0,-0.146613 0.0167,-0.03091 0.0626,-0.0424 0.0793,-0.07331 0.0236,-0.04371 -0.0236,-0.102901 0,-0.146612 0.0167,-0.03091 0.0626,-0.0424 0.0794,-0.07331 0.0249,-0.04607 -0.0249,-0.247151 0,-0.293226 0.0334,-0.06182 0.12523,-0.08479 0.15868,-0.146612 0.0793,-0.146613 -0.0397,-0.10996 0,-0.21992 0.0187,-0.05183 0.0606,-0.09478 0.0793,-0.146612 0.008,-0.02318 -0.008,-0.05013 0,-0.07331 0.0187,-0.05183 0.0606,-0.09478 0.0794,-0.146613 0.0167,-0.04636 -0.0237,-0.102902 0,-0.146613 0.0167,-0.03091 0.0626,-0.0424 0.0793,-0.07331 0.0118,-0.02185 0,-0.04887 0,-0.07331 0.0265,-0.02443 0.0626,-0.0424 0.0793,-0.07331 0.0169,-0.03131 0,-0.337553 0,-0.366532 0,-0.26879 0,-0.537579 0,-0.806369 0,-0.268791 0,-0.537581 0,-0.806371 0,-0.07331 0,-0.146612 0,-0.219918 0,-0.04887 0.0128,-0.0992 0,-0.146614 -0.0144,-0.05301 -0.0606,-0.09478 -0.0793,-0.146611 -0.008,-0.02318 0,-0.04887 0,-0.07331 0,-0.04887 0.0167,-0.10025 0,-0.146613 -0.0118,-0.03278 -0.0675,-0.04052 -0.0793,-0.07331 -0.0167,-0.04636 0,-0.09774 0,-0.146613 0,-0.171048 0,-0.342097 0,-0.513144 0,-0.04887 0.0167,-0.10025 0,-0.146613 -0.0187,-0.05183 -0.0606,-0.09478 -0.0794,-0.146613 -0.008,-0.02318 0.008,-0.05013 0,-0.07331 -0.0187,-0.05183 -0.065,-0.0936 -0.0793,-0.146613 -0.0192,-0.07112 0.0192,-0.148801 0,-0.219919 -0.0203,-0.07496 -0.0629,-0.144147 -0.0794,-0.219919 -0.0104,-0.04792 0.0167,-0.100249 0,-0.146612 -0.0118,-0.03278 -0.0529,-0.04887 -0.0793,-0.07331 -0.0529,-0.04887 -0.12523,-0.08479 -0.15868,-0.146613 -0.0236,-0.04371 0.0236,-0.102901 0,-0.146612 -0.0118,-0.02185 -0.0606,0.01728 -0.0793,0 -0.0418,-0.03863 -0.0466,-0.10115 -0.0793,-0.146613 -0.0208,-0.02876 -0.0626,-0.0424 -0.0794,-0.07331 -0.0118,-0.02185 0.0118,-0.05145 0,-0.07331 -0.0164,-0.03033 -0.2044,-0.199205 -0.23803,-0.21992 -0.34654,-0.213445 0.0261,0.03249 -0.31738,-0.07331 -0.0355,-0.01093 -0.0459,-0.05785 -0.0794,-0.07331 -0.0236,-0.01093 -0.0537,0.0059 -0.0793,0 -0.16227,-0.03748 -0.31203,-0.116305 -0.47606,-0.146613 -0.0519,-0.0096 -0.10957,0.01815 -0.15868,0 -0.0885,-0.03272 -0.15274,-0.107212 -0.23803,-0.146613 -0.0526,-0.02429 -0.25088,0.02048 -0.31738,0 -0.0561,-0.01728 -0.10258,-0.05603 -0.15868,-0.07331 -0.0251,-0.0077 -0.0529,0 -0.0793,0 -0.1058,0 -0.21159,0 -0.31738,0 -0.0529,0 -0.10681,0.0096 -0.15868,0 -0.082,-0.01516 -0.1569,-0.05457 -0.23804,-0.07331 -0.0256,-0.0059 -0.0606,0.01728 -0.0793,0 -0.0187,-0.01728 0.0187,-0.05603 0,-0.07331 -0.0277,-0.02559 -0.22156,0.03043 -0.23803,0 -0.0487,-0.09011 0.0114,-0.237339 -0.0793,-0.293225 -0.11003,-0.06777 -0.26529,0.01349 -0.39671,0 -0.31468,-0.03231 -0.50427,-0.159643 -0.79344,-0.293226"
       id="path842"
       inkscape:connector-curvature="0" />
  </g>
</svg>
